<?xml version='1.0' encoding='utf-8'?>
<svg xmlns="http://www.w3.org/2000/svg" width="192.15mm" height="232.04mm" version="1.1" viewBox="0 0 192.15 232.04"><g transform="translate(-843.95 -541.15)"><path d="m983.1 541.15c-1.3634 0.0518-1.4479 1.6645 0.3328 4.3729 9.755 14.837 8.5981 30.667-2.711 37.092-0.7986 0.45372-2.361 1.3588-3.4721 2.0118-2.0203 1.1872-2.0205 1.1874-3.1228-1.2433-5.2169-11.503-16.238-19.348-28.988-20.634-4.1525-0.41883-3.7763-0.19553-3.9388-2.3373-0.5854-7.714-0.62082-7.6121 2.0862-6.0064 2.0056 1.1897 3.0572 1.0644 5.8208-0.6935 1.281-0.81476 1.4363-0.84557 4.8948-0.971 3.8848-0.14089 5.7442-0.62736 7.2761-1.9032 0.7937-0.66108 0.7937-0.6611-0.5292-0.0775-2.0132 0.88809-5.2244 0.81473-7.6161-0.17415-2.2044-0.91152-3.6789-0.85674-6.474 0.24029-3.0157 1.1836-5.4841 0.65709-5.7335-1.2232-0.4365-3.2907-1.5156-3.0283-1.8779 0.45682-0.1047 1.0076-0.31008 1.9808-0.45578 2.1627-0.1807 0.22545-0.17042 0.33073 0.032 0.33073 0.209 0 0.29714 1.448 0.29714 4.8788 0 5.4872 0.43612 4.8827-3.8365 5.3191-10.811 1.1041-20.605 6.9204-26.459 15.713-1.6633 2.4985-3.5714 6.2716-3.5714 7.0626 0 0.32986-0.1279 0.30981-0.7276-0.11317-0.4002-0.28228-1.3825-0.8428-2.1828-1.2454-13.975-7.0298-16.12-22.384-5.4141-38.75 1.6997-2.5982 1.6047-2.1612 0.74879-3.4546-2.6296-3.9736-15.901 11.084-19.36 21.966-5.6807 17.872 2.5899 36.855 17.591 40.375 4.9426 1.1599 12.52-2.3611 12.52-5.8177 0-0.14552-0.33669 0.26624-0.74827 0.91519-3.9959 6.3008-13.577 6.1109-20.58-0.40825-1.2933-1.204-1.2934-1.2042 0.29403-0.29507 1.6816 0.96304 4.3656 1.8739 4.3656 1.4816 0-0.1284 0.58238 0.0271 1.294 0.3452 1.2207 0.54582 1.2543 0.58694 0.59531 0.72967-0.9878 0.21392 1.7056 1.0397 3.3843 1.0377 3.7511-5e-3 8.1432-3.5448 9.4154-7.5897 1.8612-5.9171-7.0078-13.388-13.623-11.477-3.8619 1.1159-8.2039-1.4732-10.898-6.4983-1.0006-1.8662-1.1992-2.8812-0.22635-1.1565 3.0455 5.3992 8.8646 7.3342 11.534 3.8349 0.70818-0.92853 0.70805-0.92878 2.6526 0.91829 1.9961 1.8961 3.3293 2.8494 6.6301 4.7403 9.0373 5.1772 5.6006 16.905-5.2012 17.75-2.5135 0.19657-2.5135 0.19662-0.22634 0.23512 7.906 0.13303 12.759-5.697 10.429-12.529-0.34738-1.0186-0.59913-1.885-0.55913-1.9255 0.1554-0.15764 1.9513 3.5636 2.1327 4.4188 0.192 0.90572 0.19185 0.90579 0.52865 0.10491 0.627-1.4913 2.8969-2.5326 4.3475-1.9947 0.605 0.22434 0.58021 0.24962-0.39687 0.40979-2.4683 0.40464-3.3571 1.5548-3.8215 4.9465-0.6013 4.3918-2.2028 6.2359-6.6523 7.6605-1.7584 0.56301-1.758 0.56337-4.2116 4.5842-1.3494 2.2115-2.573 4.2156-2.7187 4.454-0.2095 0.3428 0.10702 0.90953 1.5141 2.7115 1.6274 2.0841 2.1398 6.2162 0.65732 5.2999-0.7371-0.45558-0.30959 0.918 1.0728 3.4458 3.0217 5.5252 2.5445 8.327-2.0293 11.918-1.6768 1.3163-3.0314 1.7178-1.9647 0.5824 0.8048-0.85671 0.72336-0.96562-0.41702-0.55863-1.6799 0.59952-2.8966 0.38314-3.6959-0.65784-0.5986-0.7801-0.344-0.78181 0.4346-3e-3 1.7877 1.7877 5.7122-0.85069 6.3267-4.2535 0.215-1.1906 0.21468-1.1906 0.39998-0.1323 0.1022 0.58209 0.0722 1.4453-0.0667 1.9182-0.3362 1.1447 0.0503 1.0913 0.75551-0.10387 3.1966-5.4178-3.1048-13.866-6.4895-8.7002-3.8639 5.897-2.9767 13.895 1.5415 13.897 1.519 5e-4 1.5148-0.23571 0.0501 2.7073-1.4982 3.0102-2.7075 4.7479-6.8389 9.8263-4.9678 6.1064-6.0443 7.9246-7.9695 13.457-2.1923 6.2998-5.0793 8.591-10.509 8.3406-2.9252-0.13494-2.9392-0.12467-1.5875 1.1793 2.6931 2.5979 7.0784 3.0694 10.057 1.0816 0.9408-0.62771 0.92427-0.59267-0.33383 0.70951-0.7276 0.75309-1.8488 1.6807-2.4918 2.0614-1.8216 1.0784-0.7353 1.0258 1.4857-0.0718 3.1213-1.5426 5.2038-3.6854 9.2888-9.5581 0.1898-0.27281 0.0219 0.0992-0.3731 0.82683-4.1418 7.6303-11.607 12.96-18.625 13.297-3.7715 0.18139-5.3682-0.30328-10.319-3.1326-4.1985-2.3995-7.1895-2.6256-9.7932-0.73949-2.4793 1.796-2.9048 6.1766-0.45992 4.7341 2.5222-1.4881 4.7258-0.90838 8.2036 2.1575 3.4422 3.0344 4.8577 3.4294 8.3566 2.3327 4.9343-1.5467 9.0731 0.65701 7.7091 4.1047-0.314 0.79375-0.31393 0.79338-0.64183-0.46353-0.712-2.7287-3.3055-3.8027-6.5293-2.7042-6.6202 5.8732-4.7316 8.1457 1.1576 10.147 1.4898 0.52129 1.5433 0.52209 2.6458 0.0434 5.5027-2.3891 12.623 2.3032 10.563 6.9608-0.6546 1.4798-1.6263 2.0236-3.6163 2.0236-2.7301 0-4.043 1.4295-4.3046 4.6876-0.3865 4.8155 3.7786 8.2531 10.024 8.2724 1.4864 5e-3 1.4866 5e-3 0.58446 0.96118-4.0557 4.7999-2.4704 2.7832-2.4681 7.0993 0 3.1337 0.50472 6.1262 1.6092 9.539 1.0622 3.2824 1.2251 3.4011 1.0883 0.79427-0.2688-5.1206 4.3516-13.9 8.0434-15.284 0.0912-0.0342 0.45375 0.95002 0.80615 2.187 2.2172 7.7833 8.6401 15.483 15.115 18.121 1.8401 0.74961 1.9531 0.68486 0.89761-0.51728-4.5139-5.141-7.1872-11.911-7.1872-18.203 0-3.3559 0.29594-3.4583 0.73794-0.25528 0.6459 4.681 3.252 10.75 6.6988 15.599 1.0109 1.4222 2.6652 4.2528 3.6758 6.29 2.9398 5.927 6.0987 9.4241 10.848 12.009 2.3501 1.2792 2.8556 1.3791 1.5555 0.30747-0.8523-0.70258-3.085-4.393-2.819-4.6592 0.0598-0.0597 1.0527 0.62124 2.2071 1.5131 1.1544 0.89184 3.4683 2.5219 5.1418 3.622 4.0583 2.6678 4.9651 3.4124 5.7159 4.6932 0.8693 1.483 0.79726 1.63-0.31884 0.65009-0.5241-0.46016-2.5779-1.9143-4.5641-3.2313-1.9861-1.317-3.8201-2.5792-4.0757-2.805-0.2555-0.22572-0.52651-0.34918-0.60151-0.27388-0.2426 0.24262 3.3827 3.4743 6.5681 5.8549 1.7034 1.273 3.097 2.4117 3.097 2.5301 0 0.44096-1.7086 2.6049-3.5362 4.4783-2.3169 2.3749 1.0028 1.417 4.6183-1.3327 0.6421-0.48832 2.1198-1.2244 3.284-1.6356 5.5656-1.9659 10.46-5.8894 13.208-10.59 1.2158-2.079 1.3957-2.0934 0.69453-0.0553-1.3365 3.8846-3.9539 7.2572-7.1277 9.1834-1.9798 1.2016-1.5165 1.1857 1.987-0.0682 7.2905-2.6094 13.819-9.182 15.445-15.55 1.2159-4.7622 2.8504-7.5662 6.4688-11.094 3.3066-3.2242 3.5143-2.4486 0.399 1.4919-2.9282 3.704-4.9342 8.2799-4.699 10.719 0.078 0.80847 0.1181 0.76406 0.7023-0.77514 1.8572-4.8927 8.8083-12.842 8.429-9.6392-0.1786 1.5077 0.1749 6.1389 0.5451 7.1396 0.1815 0.49058 0.3528 0.0876 0.9044-2.1291 1.0243-4.1163 2.3453-7.3805 5.8177-14.376 1.7337-3.4925 3.6714-7.8383 4.3062-9.6573 1.1543-3.3073 1.1542-3.3073 1.0258 0.52917-0.161 4.8125-0.48 5.9596-2.5079 9.017-1.8141 6.9765-3.3673 5.5686-4.5361 7.9628-1.8765 3.8467-1.8741 3.8738 0.1741 1.8438 1.6812-1.6662 1.6812-1.6661 1.8609 0.14004 0.2827 2.8424 1.9795 8.5736 3.0494 10.3 0.261 0.4212 0.2822 0.35405 0.1328-0.41807-1.0048-5.1929 0.6507-10.08 5.5439-16.364 1.5097-1.9389 3.2616-4.5116 3.8933-5.7175 1.1485-2.1924 1.1486-2.1925 1.9621-1.8526 2.7178 1.1356 5.2675 1.5506 9.5783 1.5606 4.6477 0.0106 5.9959-0.32029 3.7579-0.92294-3.7736-1.0161-8.185-4.4886-10.537-8.2941-0.748-1.2103-0.6777-1.2999 0.6506-0.82682 2.4209 0.86225 7.3976 0.35436 10.115-1.032 5.5726-2.8434 5.2489-11.101-0.4517-11.52-5.3454-0.39278-5.5261-6.0628-0.2801-8.7896 1.7184-0.89322 5.0124-1.0166 6.7392-0.2527 1.2439 0.55012 1.2437 0.55011 2.8747 5.2e-4 0.897-0.30227 2.4942-0.61515 3.5492-0.69505 3.6384-0.27544 2.4199-7.0286-1.6459-9.123-3.429-1.7662-7.2636-0.27439-7.2916 2.8365-0.012 1.2945-0.6543 0.70618-0.9498-0.86919-0.5761-3.0709 3.3439-4.6413 7.9974-3.2039 3.3585 1.0373 5.3096 0.47489 8.4502-2.4371 3.1375-2.9092 5.4035-3.5196 8-2.1549 1.4003 0.73603 1.339 0.73978 1.6578-0.0987 2.0485-5.3881-5.6185-7.3619-12.845-3.3068-9.6724 5.4279-20.838 1.3314-26.956-9.8898-0.3963-0.72761-0.5659-1.0963-0.3762-0.81907 3.4882 5.0952 6.4948 7.8901 9.9415 9.2403 1.8046 0.70694 1.873 0.51588 0.1778-0.49765-2.5124-1.5021-4.1473-3.2573-2.2335-2.3978 3.5409 1.5902 8.1812 0.6074 9.9617-2.11 0.5597-0.8543 0.4429-0.9264-0.9731-0.59945-5.5533 1.2822-9.5499-1.4013-11.898-7.9892-2.1006-5.8919-3.7525-8.5506-8.8506-14.246-6.5355-7.3007-8.8889-11.935-6.0606-11.935 4.6099 0 5.7808-6.7877 2.2934-13.295-2.9318-5.4708-10.105 1.4676-7.3174 7.0776 0.8291 1.6684 1.2644 2.1418 0.9731 1.0583-0.5758-2.1413 0.51-5.9478 2.3585-8.2682 0.3964-0.49757 1.8322-0.38693 2.5802 0.19895 0.6615 0.51806 0.6613 0.51835-0.1519 0.21859-2.5378-0.93543-3.6891 1.4634-2.4304 5.0633 1.0432 2.9836 2.9583 4.3803 4.716 3.4396 0.4041-0.21627 0.5121-0.18722 0.5121 0.13798 0 2.9351-5.0428-0.27765-6.2125-3.9579-0.2478-0.77933-0.6525-1e-3 -0.6625 1.2583-0.01 1.9727 1.7217 4.3854 3.546 4.946 0.6364 0.1956 0.4818 0.2174-0.7059 0.0982-1.7781-0.17848-1.8896-0.0345-0.5291 0.68368 0.9151 0.48309 0.9395 0.52508 0.3162 0.53588-4.3041 0.0745-7.4859-7.475-4.6643-11.066 0.9314-1.1853 1.138-1.6044 0.848-1.7157-0.5157-0.1979-0.1105-1.3625 0.8914-2.5626 0.7431-0.89029 0.743-0.88988-0.0113-2.0789-1.0291-1.6227-0.9798-1.8989 0.8071-4.5077 1.4378-2.0992 1.5304-2.3212 1.1731-2.8024-0.596-0.80266-4.3549-7.065-4.2669-7.1091 0.043-0.0214 1.136-0.30365 2.4298-0.62684 26.37-6.5868 29.182-44.273 4.6586-62.424-1.6123-1.1934-2.891-1.725-3.7093-1.6945zm-41.938 24.526c0.0669 2e-3 0.14373 0.0168 0.23151 0.0336 0.6983 0.13425 0.69849 0.13422 0.70849 7.3132 0.0114 13.702 0.42169 15.692 4.5217 21.927 3.1356 4.7679 3.7549 7.0709 2.544 9.462-0.2579 0.50933-0.71333 1.2237-1.0118 1.5875-0.596 0.7263-0.58117 0.63564 0.15503-0.92604 1.2712-2.6966 0.67825-4.9016-2.7388-10.178-3.644-5.6264-4.1946-8.4322-4.7057-23.991-0.15321-4.6628-0.1725-5.2457 0.29559-5.2286zm-2.3528 0.10646c0.68218 0 0.68239 0 0.51469 5.2255-0.4951 15.426-0.93389 17.618-4.8824 24.408-1.1425 1.9645-2.2868 3.9884-2.5435 4.4974-0.2579 0.5114-0.54265 1.8728-0.63665 3.0427-0.1696 2.1172-0.1694 2.1172-0.4868 1.0588-0.7235-2.4129-0.26801-4.0862 2.1973-8.0698 4.7568-7.6865 5.1204-9.3986 5.1454-24.276 0.0101-5.887 0.01-5.887 0.69195-5.887zm60.636 4.5475h5e-4c0.017 0.0496-0.0122 0.54571-0.0692 1.5379-0.4561 7.9778-5.3278 12.159-14.763 12.671-5.1364 0.27858-7.7671 1.7239-9.4444 5.1888-3.7242 7.6932 3.8187 14.249 11.247 9.7762 0.835-0.50274 1.364-0.72867 1.1757-0.50178-0.7122 0.85808-2.6967 1.7624-4.9398 2.251-2.3241 0.50627-2.3231 0.50642-0.5756 0.39067 2.1786-0.14431 4.2725-0.92292 5.5242-2.0536 0.528-0.47702 0.3345-0.25308-0.4305 0.49764-0.9139 0.89697-1.8979 1.5547-2.8696 1.9182-12.345 4.619-17.115-10.46-5.5159-17.438 2.0559-1.2369 4.1741-2.5881 4.7072-3.0024 0.9694-0.75329 0.9692-0.75317 2.266-0.19534 5.9934 2.5783 12.264-2.0242 13.486-9.8991 0.1232-0.79375 0.1849-1.1906 0.2015-1.141zm-67.139 0.894c4.7069 0.0254 5.8071 0.51282 2.6355 1.1679-5.5052 1.1371-9.4937 5.5251-7.0068 7.7086 1.0467 0.91906 1.2379 1.475 0.34262 0.99581-3.0897-1.6535-6.8326 0.29528-5.8813 3.0623 0.8956 2.6052 4.0849 3.9665 7.1996 3.0732 1.1685-0.3351 1.0777-0.14392-0.26613 0.55966-2.8219 1.4775-6.2969 0.36061-8.0233-2.5787-0.5108-0.8695-3.1231 4.8522-4.1972 9.1922-1.2635 5.1056-2.4169 6.9418-5.0509 8.0424-1.3682 0.57167-2.0197 0.48124-1.0025-0.13901 1.6521-1.0074 3.7879-4.1977 3.7879-5.658 0-1.5714-2.2589-2.7352-3.1724-1.6345-0.46 0.55492-0.85908 0.21766-0.51108-0.43253 0.4506-0.84192 2.0035-1.3645 3.4742-1.1694 0.6971 0.0925 1.2676 0.0638 1.2676-0.0636s-0.13041-1.2014-0.28991-2.3864c-1.4106-10.482 6.4656-19.795 16.694-19.74zm18.542 0.38241c3.5438 0.0127 8.7862 4.213 11.884 9.5219 0.6368 1.0914 2.0289 2.8739 3.0934 3.961 2.4179 2.4693 1.7309 3.096-1.463 1.3353-1.0953-0.60379-1.3689-0.6768-1.2159-0.32557 0.6214 1.4266 1.2292 3.4801 1.3622 4.6033 0.1406 1.1873 0.1869 1.2561 0.5984 0.88367 2.1432-1.9396 6.3595 1.1942 4.4901 3.3373-0.5448 0.62459-0.5451 0.62473-0.1255-0.0672 0.755-1.245-0.4045-2.8799-2.0428-2.8799-0.9552 0-2.5787 0.67525-2.5787 1.0728 0 0.18797 0.179 0.23273 0.4631 0.11575 1.0223-0.42087 1.3612-0.42272 2.1518-0.014 1.0989 0.56829 1.0383 0.80716-0.2083 0.82166-1.3359 0.0155-1.8774 0.48684-1.8774 1.634 0 2.284 1.9281 4.1738 4.0835 4.0023 1.1675-0.0929 1.1846-0.0833 0.7028 0.39843-2.4329 2.433-5.7489-0.41654-6.8823-5.9144-0.842-4.0848-4.254-11.33-4.254-9.033 0 1.7377-4.0741 3.7776-6.4616 3.2355-2.0009-0.45432-3.178-1.3975-1.2744-1.0211 5.8081 1.1484 9.4995-5.2999 3.8148-6.6637-1.0307-0.24723-1.4881-0.23278-2.3813 0.0749-1.3421 0.46242-1.4136 0.18175-0.1994-0.78703 1.8008-1.4369-1.8719-5.4126-5.3847-5.8286-1.8589-0.22014-1.8971-0.51664-0.11421-0.88676 1.7171-0.35648 2.9693-0.21581 4.7072 0.52916 1.631 0.69916 1.3079-0.055-0.55087-1.2862-1.2423-0.82259-1.2422-0.82259-0.33693-0.81959zm-17.659 5.0483c0.34016-0.0121 0.69492 0.0142 1.0599 0.0827 2.8845 0.5411 2.8576 4.6531-0.0429 6.566h-5.1e-4c-1.9274 1.2711-4.3523 0.21339-4.6912-2.0464-0.38281-2.5527 1.2936-4.5178 3.6747-4.6023zm13.587 0.48834c1.0363 0.0247 2.1583 0.50261 3.0768 1.5942 0.7554 0.89781 0.97462 0.98951 0.97462 0.40669 0-0.21829 0.1262-0.39687 0.2806-0.39687 0.8451 0-0.35352 3.5715-1.5017 4.4747-1.5171 1.1934-4.1939 0.50837-5.3547-1.3699-1.6215-2.6236 0.24446-4.763 2.5244-4.7088zm-6.1862 8.8837c0.0282-0.0291 0.12386 0.4752 0.31471 1.4831 0.6728 3.5537 4.5498 12.751 5.5139 13.081 1.2107 0.41443-0.54348 3.0522-2.7461 4.1295-4.5257 2.2135-10.019-0.0646-10.2-4.2308-0.0593-1.3578-0.0485-1.3918 0.11213-0.3545 0.2371 1.5317 3.9624-6.0851 5.4725-11.189 0.7565-2.557 0.84098-1.7244 0.15968 1.5746-0.5001 2.4215-1.8508 6.0215-3.2014 8.5328-0.747 1.3891-0.74705 1.3891 4.1072 1.3891 4.8543 0 4.8547-2e-5 3.2882-3.2411-1.7749-3.6721-2.5058-6.2025-2.7316-9.4589-0.078-1.1245-0.11707-1.687-0.0889-1.7162zm13.942 4.9196c0.6046 0.0234 0.5933 0.0419-0.1323 0.21705-1.0671 0.25751-1.7355 0.63934-2.4422 1.3953-0.3247 0.34725-0.77075 1.1023-0.99115 1.6779-0.4009 1.0466-0.40131 1.047-0.23771-0.14366 0.2882-2.0978 1.6564-3.2297 3.8034-3.1466zm0.2516 1.172c0.1367-5e-3 0.2744-3e-3 0.4119 7e-3 0.6598 0.0476 1.3158 0.27175 1.8428 0.68627 2.152 1.6927 1.8092 4.8694-0.6594 6.1097-0.5383 0.27043-1.4705 0.4537-2.2438 0.4408-1.3229-0.0221-1.3229-0.0226 0-0.34778 1.7913-0.44036 2.4493-0.83397 3.0562-1.8294 1.7792-2.9179-1.6853-6.1071-4.2928-3.9517-0.87688 0.72487-0.87834 0.7252-0.4542 0.0661 0.4737-0.73633 1.3828-1.1436 2.3393-1.1808zm-29.126 0.062c1.028 0.0394 1.9422 0.45747 2.2598 1.2852 0.1106 0.2883-0.0336 0.25189-0.51935-0.13022-2.1279-1.6738-4.8808-0.27881-4.8808 2.4732 0 1.7302 0.91539 2.6175 3.3073 3.2055 1.3229 0.32526 1.3229 0.32535 0 0.33745-3.2519 0.0299-5.2066-2.9082-3.668-5.5128 0.66994-1.1341 2.1793-1.709 3.5011-1.6583zm25.845 8.5297c2.824 0.0145 17.905 5.409 24.46 8.7493 7.1287 3.6326 7.4153 3.8819 5.9413 5.1713-1.616 1.4137-1.626 1.4132-4.2215-0.20464-5.777-3.601-12.312-6.2708-21.662-8.8491-5.6844-1.5676-6.1265-1.8323-1.0433-0.62477 9.254 2.1983 15.016 4.4751 21.993 8.6894 2.9366 1.7739 3.3393 1.8329 4.2856 0.62994 0.5442-0.69214 0.5443-0.69207-0.5886-1.2568-0.623-0.31059-2.4769-1.3074-4.1197-2.2148-5.8286-3.2195-13.153-6.1582-20.868-8.3726-3.9402-1.131-5.3813-1.7232-4.177-1.7172zm-22.816 0.0703c0.80507-0.0623 0.48342 0.42531-0.67955 0.73639-9.021 2.413-21.512 7.4851-28.459 11.556-1.1407 0.66849-1.1408 0.66856-0.40101 1.4407 0.9108 0.95066 1.1225 0.90733 4.191-0.85834 7.2118-4.1499 21.291-9.3587 24.939-9.2268 0.2516 9e-3 -1.3968 0.52471-3.6633 1.1462-7.7621 2.1284-11.347 3.4974-18.223 6.9582-7.5375 3.7939-6.4673 3.4916-8.0052 2.264-1.5825-1.2632-1.6078-1.1677 0.64957-2.4882 7.61-4.4516 21.321-9.8286 29.236-11.465 0.16182-0.0335 0.29995-0.0536 0.41496-0.0625zm11.757 8.6904c13.994-0.13745 27.666 3.2314 38.303 10.053 2.8661 1.8381 2.7275 1.6248 1.7797 2.7373-0.4002 0.4697-0.8467 1.038-0.9922 1.263-0.2265 0.35016-0.65 0.19224-2.9466-1.0992-6.6677-3.7494-16.198-7.0466-24.967-8.6382-3.5719-0.64832-3.5718-0.64842-1.0583-0.52245 3.3367 0.16722 8.2932 1.0323 12.242 2.1368 3.6627 1.0243 4.0447 1.0277 1.7916 0.0165-17.382-7.8007-48.17-4.7855-63.852 6.2528-0.5251 0.36956-0.94581 0.46708-1.4552 0.33693-1.1269-0.28797 0.55369-1.5578 5.2245-3.9465 10.985-5.6178 23.583-8.4689 35.931-8.5902zm-5.0467 3.5083c0.38365 2e-3 0.53072 0.0208 0.34882 0.0563-0.3638 0.071-2.3878 0.43458-4.4979 0.8077-7.0364 1.2442-13.921 3.2762-21.431 6.3252-2.2556 0.91571-5.2024 2.1412-6.5484 2.7234-2.7492 1.1889-3.0231 1.2226-1.1906 0.14676 8.8981-5.2239 22.828-9.6451 31.552-10.014 0.764-0.0324 1.3842-0.0471 1.7678-0.045zm5.3118 3.0856c2.2462-0.0273 2.4323 0.30102 2.4717 2.0898 0.0489 2.2378 0.3864 2.7147 0.57 0.80564 0.2784-2.8954 0.0405-2.7376 3.8778-2.5668 4.7832 0.21289 14.817 2.1783 13.518 2.6479-0.2183 0.0789-1.0851 0.34937-1.9265 0.601-1.5373 0.45979-2.4896 1.1082-1.0723 0.73018 2.0392-0.54386 6.507-0.2474 8.2243 0.54571 2.0031 0.92512 2.0514 1.1077 0.3137 1.187-1.7403 0.0794-4.3778 0.90346-6.8622 2.144-4.3234 2.1591-5.4746 1.9233-3.5191-0.7214 1.0912-1.4759 0.2281-0.94916-2.2624 1.3808-2.639 2.4688-3.032 2.6494-5.7278 2.6324-3.3256-0.0209-4.6302-0.91946-4.6302-3.189 0-1.1942-0.2379-0.5639-0.5085 1.3467-0.1408 0.99457-0.35267 1.9051-0.47077 2.0231-0.941 0.94099-5.6504 0.40136-5.9397-0.68058-1.6773-6.2716-0.49203-10.823 2.8505-10.947 0.41055-0.0152 0.77311-0.0261 1.094-0.03zm-7.5928 0.47284c1.3469 0.0253 2.2115 0.24032 2.357 0.68109 0.9502 2.8793 0.38307 9.2922-0.86713 9.802-3.2406 1.3214-5.6327 0.68457-8.97-2.3885-2.3593-2.1725-2.954-2.4724-1.9379-0.9772 1.6154 2.3774 0.24415 2.5142-3.5336 0.35244-3.6085-2.065-6.5064-2.7121-9.0542-2.0211-1.3082 0.35484 0.60465-0.54656 3.2598-1.5363 6.3242-2.3575 14.705-3.9883 18.746-3.9124zm35.259 5.9232c2.1381 0.0384 3.582 1.2824 4.4168 3.791 0.7835 2.3542 0.6353 2.7893-0.5333 1.5674-1.1843-1.2382-2.6576-2.2574-5.3227-3.6814-2.3338-1.247-2.3321-1.2528 0.4801-1.6195 0.334-0.0436 0.6536-0.0628 0.9591-0.0574zm-55.574 0.80098c0.50853-4e-3 1.0176 0.0592 1.5136 0.19689 1.1906 0.33044 1.1904 0.33039-0.74156 0.96118-1.0627 0.34694-2.5764 1.0428-3.3641 1.5467-0.7878 0.5039-1.9125 1.3968-2.4996 1.9839-1.3048 1.3048-1.4294 0.81772-0.34003-1.3307 1.0382-2.0474 3.2281-3.3393 5.4317-3.3579zm-17.792 1.5591c3.083 0.16683 2.1163 7.9656-1.6097 9.8924-1.2695 0.65649-2.897 0.33944-2.897-0.5643 0-0.35135 0.07-0.34943 0.58807 0.0134 2.1889 1.5331 5.2181-2.0288 5.2291-6.149 5e-3 -1.6838-0.87696-2.8459-1.9963-2.6319-0.8511 0.16266-0.83752-0.27439 0.015-0.48834 0.24192-0.0607 0.46522-0.0836 0.67076-0.0724zm-1.1855 1.0878c0.40991 3e-3 0.84242 0.20111 1.2666 0.62529 1.4619 1.4619 1.181 3.3206-0.77463 5.1232-1.853 1.7081-2.7533 1.2484-2.7533-1.3999 4e-3 -2.6193 1.0316-4.3585 2.2614-4.3486zm92.317 0.0248c0.2437 8e-3 0.5004 0.0593 0.7659 0.16019 1.3685 0.52027 2.0957 4.5896 1.0795 6.0405-0.8195 1.17-2.5614 0.14842-3.6463-2.1378-0.9736-2.0518 0.095-4.119 1.8009-4.0628zm-16.903 1.8376c0.6277-4e-3 1.2472 0.0841 1.7968 0.29404 2.8258 1.0792 2.3534 2.6115-1.3896 4.5082-1.7875 0.90579-2.6005 0.84915-5.7211-0.39791-2.9856-1.1931-5.2425-1.8345-6.4544-1.8345-0.4519 0-0.8217-0.11905-0.8217-0.26458 0-0.5488 4.2702-0.29045 6.8399 0.41392 2.4252 0.66476 3.2759 0.71432 2.1787 0.12713-2.0203-1.0813 0.8513-2.8292 3.5714-2.8463zm-58.03 5.2e-4c2.6792 0.10003 4.9745 2.2893 2.8174 2.974-0.2776 0.0881-0.50488 0.25742-0.50488 0.3762 0 0.11877 0.98221-0.0804 2.1828-0.44235 2.4605-0.74179 7.8714-1.1798 7.8714-0.63717 0 0.16421-0.39153 0.29869-0.87023 0.29869-1.2512 0-3.6242 0.65773-6.7164 1.8619-3.7693 1.4678-5.5822 1.1599-8.2222-1.3973-1.5044-1.4572-0.21505-2.8011 2.9022-3.0246 0.18082-0.013 0.3614-0.0158 0.54002-9e-3zm29.064 3.082c1.8095 0.0273 3.5273 0.54824 4.0866 1.6299 0.9277 1.7939 0.60798 2.0388-1.5017 1.1508-2.1306-0.89673-2.2689-0.7694-0.92397 0.84697 2.4809 2.9817 2.8186 5.3624 1.2392 8.7375-0.4462 0.95342-0.81132 1.7992-0.81132 1.8795s0.82174-0.6472 1.8262-1.617c2.4178-2.3342 3.1209-2.2867 4.8679 0.32918 0.4052 0.60679 0.41787 0.54675 0.26717-1.2506-0.2545-3.0358 0.16526-3.2219 3.9367-1.7482 2.3911 0.93437 7.631 2.2787 7.8874 2.0236 0.073-0.0724 0.01-0.17661-0.1437-0.23151-1.4466-0.52352-7.5263-5.1831-8.0574-6.1753-0.2476-0.46268-0.1232-0.45096 1.6516 0.16175 2.8181 0.97293 5.2261 1.0985 7.2109 0.37517 4.6299-1.6872 4.5583-1.6736 7.8781-1.4996 3.7723 0.19762 4.8633 0.64651 6.026 2.48 0.8967 1.4139 1.0322 2.2994 0.3173 2.0748-4.7367-1.4881-8.1086-1.8191-4.779-0.46922 5.6548 2.2925 7.3356 4.163 5.8141 6.4704-1.3815 2.0951-1.8891 1.9822-4.6798-1.0408-2.41-2.6104-4.7166-4.5022-6.6079-5.4193-1.0584-0.51313-1.0584-0.51309-0.2646 0.0687 5.1335 3.7631 9.4942 11.914 8.3979 15.696-0.3444 1.1881-0.6084 1.1036-2.8644-0.92087-3.6809-3.3031-7.6543-5.67-11.294-6.7283-2.1979-0.63894-2.7492-0.37383-0.7694 0.37 6.6426 2.4956 13.938 10.257 13.938 14.831 6e-4 2.067-0.5539 3.6944-1.0345 3.037-0.2529-0.34583-0.4088-0.0976-0.9049 1.4428-0.7357 2.2843-0.9338 2.4319-1.3539 1.0082-0.4397-1.49-2.3364-5.3683-2.8231-5.7723-0.6628-0.54789-0.9813 0.0678-0.6527 1.2511 0.5143 1.8524 0.2995 1.8436-0.8159-0.0341-1.3552-2.2814-2.3349-3.5965-3.8928-5.2255-1.1247-1.1761-2.1722-1.8117-1.308-0.79375 0.7749 0.91267 1.8073 2.9498 1.7973 3.5528-0.01 0.58975-0.031 0.58267-0.5865-0.17931-1.0331-1.4181-3.7219-4.1192-5.887-5.9138-2.5878-2.145-2.6756-2.2534-3.0453-3.7714-0.76796-3.1542-5.9349-6.2789-6.8445-4.1393-0.947 2.227-0.98076 3.15-0.0749 2.0422 1.2268-1.5003 3.8878-0.42305 4.5687 1.8495 0.3776 1.2604-0.11408 2.4793-1.0537 2.6128-0.598 0.085-0.60641 0.064-0.20361-0.51108 1.6045-2.2908-2.3631-1.5837-5.0684 0.9033-1.5826 1.455-2.6407 2.1791-2.8618 1.958-0.0648-0.0648 0.18123-0.31399 0.54673-0.55345 0.6835-0.44786 2.6034-3.0877 2.3962-3.2949-0.0638-0.0638-0.52755 0.24582-1.031 0.68781-1.9336 1.6977-4.3302 1.4886-6.2714-0.54673-0.7138-0.74844-1.2981-1.2383-1.2981-1.0888 0 0.50858 1.8622 3.4129 2.6567 4.1434 0.43518 0.40018 0.67766 0.72761 0.53846 0.72761s-1.136-0.81864-2.2148-1.819c-2.8771-2.6676-5.7548-3.3106-5.3583-1.1973 0.2276 1.2133-0.48503 1.166-1.1384-0.0755-1.3446-2.5544 2.4814-5.8089 4.53-3.8535 0.8881 0.84778 0.86052 0.22872-0.0889-1.9844-0.9342-2.1778-5.9689 1.0622-6.8616 4.4158-0.3408 1.2802-0.68232 1.6578-4.501 4.9759-1.3811 1.2-2.9872 2.8319-3.5693 3.6266-1.7639 2.4085-1.9133 1.6336-0.23978-1.2444 1.9457-3.3461-1.7024 0.34041-3.9274 3.9688-1.5874 2.5886-1.5728 2.5807-1.355 0.7276 0.3552-3.0221-2.0064 0.0575-3.2044 4.1786-0.5897 2.0285-0.60733 2.0188-1.5823-0.81184-0.5683-1.6497-0.63205-1.731-0.87075-1.1183-0.2379 0.61073-0.28041 0.55453-0.55811-0.74052-1.0081-4.7005 0.77398-10.344 4.4659-14.142 0.9548-0.98226 1.6717-1.7849 1.5937-1.7839-0.4639 8e-3 -3.0009 1.7142-3.9961 2.6872-1.1731 1.1469-1.173 1.1468-2.033-0.95756-1.7663-4.3224-1.0874-6.3238 2.8407-8.3757 3.1523-1.6467 4.4833-3.6582 3.9589-5.9831-0.2934-1.3009-0.34465-1.2924 2.0386-0.33693 3.3249 1.3329 6.1237 1.2466 9.1183-0.28112 1.2334-0.62924 1.4706-0.55319 1.0103 0.32401-1.0641 2.0277-3.7996 4.2399-7.6161 6.1593-1.7899 0.90014-1.6553 1.0167 0.78031 0.67593 3.0549-0.42751 4.2714-0.93914 6.0927-2.5642 3.5624-3.1787 9.5438-3.7531 6.458-0.62012-0.722 0.73301-1.2463 1.3327-1.1653 1.3327 0.0809 0 0.83972-0.23879 1.6867-0.5302 0.84708-0.29142 1.5604-0.49972 1.5844-0.46302 0.0241 0.0368 0.18802 0.73531 0.36432 1.5524 0.2842 1.3177 1.9602 5.2617 2.236 5.2617 0.0584 0-0.11457-0.92273-0.38447-2.0505-0.9366-3.9138-0.57595-7.3422 1.1266-10.716 0.8664-1.7167 0.71655-1.8254-1.1048-0.80151-1.4857 0.83491-1.7606 0.70922-1.4226-0.64905 0.36276-1.4578 2.8412-2.239 5.1676-2.204zm22.779 3.0158c0.4981 0.019 0.9188 0.13068 1.3012 0.33176 0.8947 0.47055 0.8945 0.47043-0.5607 0.77825-0.8004 0.16929-2.1019 0.50477-2.8923 0.74517-1.6707 0.50807-2.3991 0.52054-3.8546 0.0656-1.0583-0.33077-1.0581-0.33104 0.1178-0.54105 0.6467-0.11551 1.8029-0.42564 2.5694-0.68937 1.4435-0.49663 2.489-0.72211 3.3192-0.69039zm-47.538 0.27698c0.65515-0.0403 1.8579 0.08 3.5016 0.41496 1.4625 0.29803 3.057 0.55138 3.5435 0.56328 0.884 0.0216 0.88341 0.0223 0.0398 0.3917-1.5637 0.68458-2.7403 0.66671-5.3066-0.0796-2.4412-0.70987-2.8701-1.2231-1.7782-1.2904zm-3.3631 1.0862c0.51083 0.0121 0.88623 0.092 1.0511 0.25683 1.4067 1.4066-0.0463 4.5185-2.7719 5.9366-5.284 2.7491-6.1699 4.9012-3.9202 9.5234 1.3823 2.84 1.4153 3.1233 0.52606 4.532-0.76948 1.2189-0.87394 1.2658-1.0216 0.45786-0.0598-0.32742-0.23492-1.2826-0.38912-2.1224-0.1642-0.89467-0.66895-2.1566-1.219-3.0479-2.5771-4.1752-0.27071-8.767 5.4772-10.905 2.465-0.91674 1.9568-1.1247-2.4913-1.0196-4.4544 0.10531-4.7106 6e-3 -3.3667-1.3079 1.158-1.1322 5.912-2.3566 8.1256-2.3042zm37.031 21.302c4.9405 2.0684 13.274 10.614 14.737 14.061 1.3821 3.4622 3.9716 5.5114 6.9717 5.5154 3.2039 5e-3 4.3205-2.3322 1.6278-3.4065-0.4262-0.17003-0.5005-0.26763-0.2129-0.27853 2.1586-0.0818 2.747 3.3148 0.7529 4.346-3.3719 1.7437-7.32-0.76244-11.101-7.0461-2.0143-3.3478-3.4035-5.2709-5.3227-7.3706-1.3007-1.4231-1.1638-1.1174 0.8299 1.8521 1.7131 2.5515 3.8054 6.1518 5.6266 9.6821 2.7692 5.3685 4.4783 6.2442 10.094 5.1733 1.9036-0.36299 3.5103 0.0212 6.7298 1.6092 5.382 2.6546 9.7421 1.6001 11.066-2.6768 0.4595-1.4846 0.4597-1.4847 0.5437-0.31212 0.3268 4.5784-6.9979 8.9513-11.064 6.6053-0.5091-0.29386-0.6879-0.44837-0.3968-0.34313 1.0845 0.39217 2.6696 0.42556 4.4292 0.0935 2.4616-0.46446 2.4253-0.66679-0.1008-0.56275-1.7646 0.0727-2.551-0.0483-4.8622-0.74931-2.4546-0.74449-2.9539-0.81387-4.5512-0.632-0.9867 0.11236-1.5914 0.24874-1.3436 0.30334s0.5223 0.32466 0.6093 0.59996c0.087 0.27529 0.525 0.80824 0.972 1.1844 1.036 0.87174 1.0189 0.88268-1.7099 1.0924-1.2596 0.0968-2.2262 0.28005-2.1472 0.40721 10.573 4.679 4.5015 4.2494 17.436 4.4834 2.4411 0.0347 2.6971 0.0747 1.5875 0.24753-6.182 0.96288-13.382-0.36047-19.682-3.6179-8.795-4.5471-11.765-7.3189-21.048-19.645-2.3696-3.1464-5.0688-6.5519-5.9981-7.5675-1.6363-1.7879-1.4857-1.7719 0.79685 0.0832 1.2439 1.0109 1.3812 0.87863 0.41032-0.39429-0.7505-0.98402-0.69417-1.0594 0.37723-0.50539 0.4162 0.21523 1.0408 0.97138 1.4428 1.7461 0.3899 0.7516 1.4059 2.3373 2.2577 3.5233 0.8517 1.186 1.7014 2.4541 1.8883 2.8179 0.6118 1.1909 3.5051 5.5791 3.6096 5.4746 0.1703-0.17032-4.5501-9.371-5.3537-10.435-0.4124-0.54605-1.3491-1.6338-2.082-2.4169-1.4418-1.5406-0.11606-1.138 2.2391 0.67955 0.5929 0.45753 0.35484 0.1142-0.66146-0.95447-1.0021-1.0541-1.3437-1.5447-0.92604-1.3312 1.2849 0.65691 2.1329 1.4306 3.8809 3.5419 0.97188 1.1738 1.4492 1.8457 1.0609 1.4934-0.9787-0.88769-1.095-0.58793-0.25266 0.65164 0.38836 0.57162 1.4506 2.5294 2.3606 4.3506 1.7754 3.553 4.2351 7.0294 6.9298 9.7937 1.6764 1.7198 1.6765 1.7198 0.2305-0.1323-2.4527-3.1412-4.1912-6.194-7.0321-12.349-1.428-3.0936-2.3301-4.5147-4.4607-7.0264-0.7742-0.91264-1.3088-1.6593-1.188-1.6593zm-19.304 0.33951c0.37244-0.0286 0.0562 0.71247-1.0749 2.2324-1.4322 1.9247-2.4911 3.8043-4.1341 7.3386-2.301 4.9497-4.2356 8.351-6.3112 11.095-1.7458 2.3082-1.8748 2.5718-0.59635 1.219 3.9886-4.2207 5.8858-6.9088 7.5473-10.693 0.5696-1.2973 1.4846-2.9994 2.033-3.7822 1.2161-1.736 1.2608-2.0086 0.16175-0.98599-0.8352 0.7771-0.83544 0.77722 0.0548-0.5457 1.3063-1.9412 3.1362-3.8128 4.316-4.4147 1.0354-0.52823 1.0353-0.52839-0.34003 0.84698-1.755 1.7549-1.5418 2.0483 0.29094 0.40049 1.8747-1.6853 1.9271-1.0858 0.0941 1.0749-0.8332 0.98212-2.0739 2.9337-2.82 4.4364-0.7326 1.4756-1.5425 3.0402-1.7999 3.4768-1.3383 2.2696-2.4313 4.4157-2.1647 4.2509 0.3886-0.24013 2.5867-3.5243 3.7305-5.5738 0.4873-0.87312 1.5658-2.4986 2.3968-3.6122s1.7093-2.5435 1.9513-3.1771c0.2754-0.72119 0.73247-1.3196 1.2227-1.6009 0.78298-0.4494 0.78286-0.44981 0.36586 0.35657-0.55228 1.0681-0.27998 1.2715 0.61702 0.46043 2.3196-2.0974 2.0566-1.3911-0.65267 1.7524-1.0034 1.1642-3.743 4.6765-6.0885 7.8052-10.121 13.501-18.589 19.37-30.364 21.044v5.2e-4c-2.7282 0.38796-7.5596 0.4489-9.6625 0.12196-0.8626-0.13407-0.31602-0.19758 1.9844-0.23048 4.0324-0.0576 9.2502-0.64235 10.451-1.171 1.0378-0.45682 0.72519-0.51674-1.1131-0.21394-0.6849 0.1128-1.1926 0.11923-1.1276 0.0145 0.1597-0.25834 4.434-1.2457 6.0896-1.4066 1.6382-0.15928 2.934-0.69129 2.4428-1.003-0.2312-0.14669-0.15007-0.21611 0.25683-0.21911 1.1303-8e-3 0.59171-0.51515-0.73329-0.69091-5.7414-0.84051 0.87556-4.3968-7.0058-2.498-1.3097 0.32752-3.2147 0.67995-4.2333 0.78289-2.4691 0.24949-0.52126 0.64861 2.4763 0.50747 1.9294-0.0908 2.0926 0.31116 0.3085 0.75912-4.1216 1.0349-9.8351-3.129-9.7751-7.1241 0.0224-1.497 0.0581-1.4787 0.50488 0.25942 1.0643 4.1401 5.5169 5.2094 10.764 2.5848 3.7496-1.8754 5.0087-2.1516 7.3432-1.6102 5.1276 1.1892 6.8412 0.11825 10.346-6.4678 1.1229-2.11 3.0403-5.4329 4.2612-7.3835 1.2209-1.9506 2.178-3.5876 2.128-3.638-0.2473-0.24733-4.0587 4.9523-5.9459 8.1111-3.547 5.9374-6.7611 8.3094-10.056 7.4223-1.6118-0.43401-3.136-2.7239-2.1988-3.3032 0.1847-0.11421 0.22679-0.0177 0.11679 0.26872-0.0944 0.24572-0.0636 0.39463 0.0687 0.33073 1.4997-0.72428 2.3261-1.0243 2.5802-0.93586 0.1684 0.0585-0.0683 0.19068-0.52607 0.29352-1.9533 0.43876-2.0492 1.6716-0.17777 2.2893 2.9886 0.98631 6.5893-1.4367 8.2791-5.5718 1.6908-4.1372 3.9576-6.9223 8.5907-10.555 1.6552-1.2978 1.7558-1.3435 1.1157-0.50436-1.1717 1.5361-0.7957 1.4418 0.9555-0.23978 1.6222-1.5577 2.6832-2.3557 3.0556-2.3844zm8.3349 3.3905c0.31368 0.0477 0.36747 0.75134 0.59944 2.4407 0.1432 1.0422 0.29838 1.3226 0.84698 1.5312 0.9632 0.3662 1.0834 0.10826 1.1694-2.512 0.0856-2.5976 3.4078-0.61901 4.1692 2.4831 0.1607 0.65483 0.40469 1.4585 0.54209 1.7859 0.3069 0.73109 0.15613 0.74469-0.78807 0.0724-2.3349-1.6627-6.2151-1.8826-8.8625-0.50281-0.5877 0.3063-1.5087 0.90535-2.0464 1.3312-0.9776 0.77423-0.97737 0.77395-0.17777-1.4196 0.9018-2.474 0.99861-2.606 3.1383-4.2871 0.76409-0.60029 1.1652-0.96007 1.4092-0.92294zm1.0542 11.168c2.2853-0.022 4.8599 0.37152 6.6409 1.1157 1.3309 0.5561 1.1858 0.87854-0.4377 0.97204-1.3891 0.08-1.3888 0.0801 0.31626 1.1384 1.436 0.89135 1.603 1.0673 1.0583 1.1147-3.9021 0.33968-14.572 0.13009-14.996-0.29456-0.5774-0.5774 1.9017-2.8582 3.8514-3.5434 0.92903-0.32652 2.196-0.48959 3.5672-0.50281zm-1.062 9.3917c0.0977-0.0221 0.12853 0.0735 0.0693 0.31678-0.0887 0.3638-0.3258 1.3163-0.5271 2.1167-0.7443 2.9605-0.75841 3.1801-0.13591 2.1167 0.661-1.1293 0.61976-0.805-0.38344 3.0102-1.648 6.2679-0.52721 15.909 3.1683 27.253 0.80028 2.4566 1.397 4.5237 1.327 4.594-0.5499 0.54987-4.9101-10.346-5.8493-14.617-0.7804-3.547-0.92766-3.8784-0.76636-1.7198 0.1937 2.5924 1.21 8.0861 2.2014 11.899 0.97808 3.7615 0.92788 3.8302-0.4377 0.59841-5.0917-12.05-5.7252-23.199-1.7704-31.151 1.0048-2.0204 2.6807-4.3218 3.1042-4.4178zm3.4778 0.0837c0.0701 9e-3 0.132 0.48093 0.16485 1.556 0.0525 1.7198 0.0525 1.7198 0.36845 0.13229 0.2909-1.462 0.32802-1.0749 0.4718 4.8948 0.2645 10.977 1.5686 17.599 6.5397 33.205 1.6657 5.2291 2.6768 9.3372 3.1962 12.987 0.4457 3.1317 0.2586 3.7036-0.50748 1.5503-0.3475-0.97658-2.3271-5.2088-4.3992-9.4046-9.128-18.483-11.227-28.613-7.9897-38.56 0.5735-1.7621 0.57333-1.7622 0.74983 4.191 0.2326 7.8453 1.1758 13.511 3.406 20.463 0.9992 3.115 1.2419 3.2194 0.5271 0.22686-1.7222-7.2107-2.9237-18.068-2.8887-26.101 0.0129-2.9454 0.20705-5.1613 0.36122-5.1408zm3.4613 1.0774c0.18901-0.12743 0.35091 1.3694 0.9095 6.3335 0.305 2.7111 0.85613 6.8187 1.2247 9.1281 0.3685 2.3094 0.88924 5.8661 1.157 7.9034 0.5691 4.3302 0.56953 4.3291-0.36535 2.2459-3.2681-7.2832-4.7443-18.489-3.2401-24.603 0.13682-0.55613 0.22828-0.94977 0.3142-1.0077zm-12.167 2.4753c0.0464 1e-3 0.0482 0.0784-0.01 0.25218-3.1868 9.5752-1.9228 19.613 4.2308 33.602 4.958 11.271 5.9272 14.44 6.4761 21.174 0.6781 8.32-1.7817 17.501-6.6611 24.864-2.2443 3.3864-3.3652 4.3981-1.6123 1.4552 8.874-14.899 8.3184-25.899-2.051-40.614-8.4717-12.021-9.379-19.497-4.3098-35.52 1.2996-4.1075 1.4707-4.4465 1.234-2.4474-0.1988 1.678-0.0537 1.6628 0.83199-0.0878 0.63326-1.2516 1.6702-2.6824 1.8712-2.6779zm66.068 0.35502c0.082 0.0245 0.2487 0.2602 0.5054 0.77876 1.1665 2.3565 3.4833 4.2067 6.705 5.3542 1.6338 0.5819 0.5876 0.67232-1.6092 0.13901-2.4724-0.60022-3.8885-1.7732-4.9821-4.1258-0.5722-1.2311-0.7998-2.2-0.6191-2.1461zm-117.86 0.6258c0.0991 0.0439-0.0496 0.53238-0.46871 1.4557-0.82548 1.8186-1.8186 2.9167-3.2897 3.6365-0.7582 0.37099-2.0264 0.73527-2.8179 0.80977-1.4392 0.13544-1.4392 0.13538 0.18552-0.49196 2.2739-0.87802 4.1195-2.3195 5.3733-4.1972 0.57155-0.85589 0.91837-1.2567 1.0175-1.2128zm65.469 0.19637c0.14247-0.047 0.54762 1.3109 1.1136 3.7714 0.7496 3.2581 1.1333 3.9747 0.99167 1.8521-0.0729-1.0926 0.0687-0.82465 1.0852 2.0505 1.6528 4.6748 2.2706 6.0657 5.3449 12.039 3.0689 5.9623 4.3033 8.9107 5.3041 12.671 0.7561 2.8367 0.7605 3.5946 0.01 1.4118-0.5932-1.7244-4.2185-9.088-4.9144-9.9818-0.4009-0.51491-0.3382-0.20331 0.2832 1.4077 3.809 9.8747 4.0408 17.65 0.7891 26.457-1.2852 3.4808-3.235 7.8147-3.0577 6.7954 2.2672-13.033 1.7231-19.759-3.0402-37.571-2.556-9.5578-4.0301-17.234-3.9631-20.638 3e-3 -0.1655 0.0215-0.25234 0.0537-0.26562zm44.26 6.983v5.1e-4c0.229 0.0625 0.8958 0.65516 1.6077 1.4418 1.1287 1.2472 1.9906 1.886 3.6375 2.6954 3.4268 1.6842 0.4459 1.1114-3.7533-0.7214-0.2441-0.10654-0.1909 0.16738 0.169 0.87488 1.332 2.618 1.7017 4.5212 1.8738 9.6464 0.165 4.9125 0.1646 4.9125 1.1085 6.813 0.5191 1.0453 0.9155 1.9007 0.8795 1.9007s-0.435-0.44649-0.8873-0.99219c-1.8097-2.183-2.6508-4.8298-2.6608-8.3706-0.01-2.7784-0.4298-5.2759-1.3684-8.0998-0.7966-2.3965-1.1041-4.7531-0.6764-5.1816 0.014-0.0137 0.0372-0.0158 0.0702-7e-3zm-101.83 0.61701c0.69928 0.0886 0.48783 2.027-0.65629 5.672-0.8834 2.8144-1.3663 5.7319-1.3663 8.2558 0 2.1445-0.62522 4.4907-1.6035 6.0151-1.321 2.0587-1.8577 2.3167-0.93121 0.44804 0.8061-1.6257 0.81672-1.6994 0.95602-6.813 0.1409-5.1698 0.14071-5.1697 1.141-7.551 1.5047-3.5822 1.5228-3.41-0.26045-2.5223-0.85278 0.42447-2.2057 0.84148-3.006 0.92708-1.4552 0.15556-1.455 0.15563-0.38396-0.31523 1.9022-0.83631 3.3975-1.8547 4.7398-3.2282 0.5208-0.53291 0.92727-0.82465 1.219-0.88108 0.0547-0.0106 0.10531-0.0131 0.15193-7e-3zm87.143 3.1869c0.0849 0.0338 0.3012 0.24315 0.6469 0.57826 2.382 2.3087 2.8401 5.8003 1.0413 7.938-0.3729 0.44318-0.8508 0.80615-1.0619 0.80615-0.289 0-0.252-0.14137 0.1498-0.57258 1.4207-1.5249 1.3794-4.3226-0.1069-7.2233-0.59-1.1515-0.8114-1.5828-0.6692-1.5265zm-77.082 0.0853c0.1353-0.0465-0.0804 0.38805-0.65577 1.5472-1.4228 2.8664-1.3143 5.5946 0.293 7.3592 0.6302 0.69196 0.57734 0.71483-0.40876 0.17983-2.4578-1.3335-2.3736-6.0886 0.1509-8.5354 0.3321-0.32181 0.53945-0.52297 0.62063-0.55087zm-5.0974 1.8247c0.28032-0.0518-0.10817 0.79649-1.233 2.4696-1.9252 2.8636-2.1355 4.6207-1.2413 10.367h-5.1e-4c0.2822 1.8122 0.27076 2.307-0.0791 3.4396-0.4081 1.3229-0.4078 1.3229-0.4408-0.52917-0.0179-1.0186-0.32785-2.9769-0.68885-4.3517-1.2117-4.6132-0.86088-6.4382 1.8469-9.6051 0.99605-1.1649 1.6186-1.7498 1.8366-1.7901zm87.968 2.0531c0.05 0.011 0.1969 0.18119 0.4346 0.46457 2.1394 2.55 2.5341 5.2994 1.3095 9.1281-0.3956 1.2369-0.7969 3.0824-0.8909 4.101-0.1275 1.3767-0.2201 1.6823-0.3607 1.1906-0.3554-1.2428-0.1969-3.7166 0.3778-5.8942 0.8373-3.1731 0.7625-5.2503-0.2703-7.505-0.4946-1.0798-0.6829-1.5035-0.6-1.4852zm-14.908 4.6126c0.081 0.0235 0.4355 0.56391 1.0129 1.6066 2.6358 4.7609 2.9273 10.394 0.8268 15.974-0.9521 2.5295-0.5246 2.0367 1.004-1.1576 0.9668-2.0206 1.3882-2.6764 1.4532-2.2639 0.1148 0.72276-0.9206 3.3255-2.0955 5.2669-0.951 1.5712-6.0472 8.5278-6.0472 8.2548 0-0.0901 1.0683-2.3473 2.374-5.0162 4.4976-9.1934 5.0972-15.234 2.1012-21.169-0.5176-1.0254-0.7103-1.519-0.6294-1.4955zm-54.689 1.82c0.0251 8e-3 -0.018 0.13339-0.11007 0.38189-3.0775 8.3097-0.83367 16.714 7.7344 28.972 3.1395 4.4913 5.5456 8.3768 6.2678 10.12 0.613 1.4798 0.3383 1.2048-0.7612-0.76119-1.3674-2.4453-4.3006-6.2746-9.2516-12.079-5.0094-5.8728-7.9356-10.467-7.1603-11.243 0.22838-0.22842 0.35581-0.0526 2.3554 3.2499 0.8497 1.4034 1.6038 2.493 1.6748 2.4216 0.0714-0.0714-0.0532-0.40937-0.27699-0.75086-3.2482-4.9575-3.6912-16.443-0.77101-19.992 0.1808-0.21971 0.27363-0.32852 0.29869-0.32039zm8.0662 2.7042c0.0671-3e-3 0.0602 0.3217-0.0269 0.98495-1.1744 8.9502 0.26217 15.036 6.3484 26.897 1.58 3.0791 3.2298 6.5774 3.6664 7.7737 1.069 2.9291 0.87291 2.8634-0.65319-0.21911-1.3825-2.7925-2.9733-5.5271-5.7268-9.8454-5.0886-7.9805-6.5939-15.572-4.5387-22.886 0.50069-1.7822 0.81887-2.6993 0.9307-2.7047zm-33.458 11.53c0.0927-0.0178 0.15357 0.0386 0.19947 0.15813 0.3014 0.78554-0.16636 1.6681-1.9131 3.6122-0.9667 1.0759-2.1584 2.4438-2.6484 3.0396-0.49 0.59584-1.3082 1.8843-1.8185 2.8634-0.9746 1.8697-1.1593 1.7052-0.56844-0.50694 0.5548-2.0766 1.3736-3.443 3.297-5.501 0.9807-1.0492 2.1681-2.3596 2.6386-2.9125 0.41518-0.48795 0.65885-0.72323 0.81338-0.75293zm104.45 2.7833c0.0607-0.015 0.0797 0.15972 0.0837 0.47853 0.046 3.4255-1.5235 7.1514-4.9898 11.839-1.3374 1.8085-2.901 4.2493-3.4743 5.424-1.0874 2.2282-1.35 2.0609-0.6211-0.39584 0.5999-2.0218 1.4664-3.6409 3.7109-6.9319 2.2952-3.3653 3.3058-5.2838 4.4912-8.5282 0.4754-1.3011 0.6972-1.8584 0.7994-1.8852z" stroke-width=".26458"/></g></svg>