<?xml version='1.0' encoding='utf-8'?>
<svg xmlns="http://www.w3.org/2000/svg" width="203.67mm" height="255.26mm" version="1.1" viewBox="0 0 203.67 255.26"><g transform="translate(775.03 -421.14)"><path d="m-696.95 421.14c-7.9316-0.0356-16.266 1.6379-24.959 5.0224-7.6766 2.9887-17.302 7.9767-16.471 8.5359 0.2549 0.17163 1.9518 1.1227 3.7708 2.113 31.928 17.383 77.228 45.578 90.678 56.438l1.1167 0.90176 0.99425-0.81908c0.5467-0.45063 1.3005-0.81958 1.6754-0.81958 1.0146 0 3.3455-1.2562 4.0256-2.1699 0.328-0.44052 1.0103-1.2076 1.5162-1.7043l0.91984-0.90278 0.35036 0.99942c1.6486 4.6984 0.42662 13.927-3.4086 25.738-5.8162 17.912-6.8819 39.018-2.6556 52.597 0.5953 1.9127 0.65454 1.9265-3.0474-0.72037l-2.0743-1.4831-0.0672-32.822-0.0667-32.821-0.99115-0.55913c-0.5452-0.30745-1.9283-1.3392-3.0737-2.2929-1.1454-0.95365-2.1778-1.6751-2.2944-1.603-0.4489 0.2774-1.9309 8.8232-2.1782 12.56l-0.0791 1.1906-0.4346-0.93793c-1.209-2.6116-1.7642-9.7723-1.1917-15.365l0.20619-2.0159-5.4978-3.4422c-29.674-18.579-60.917-36.761-77.687-45.209l-6.5722-3.3114-2.0929 1.3741c-1.151 0.75565-2.0929 1.4005-2.0929 1.433s0.7048 1.5429 1.5658 3.3564c1.4494 3.053 5.0611 6.3071 7.0001 6.3071 0.0766 0-0.46333-1.3395-1.1999-2.9766-3.1701-7.0451-3.1909-7.1206-1.6624-6.1066 2.2755 1.5096 3.22 2.8989 5.6699 8.3432 1.3933 3.096 1.3933 3.0959 3.9398 4.6085 1.4006 0.83196 2.8084 1.681 3.1285 1.8867 0.5106 0.32806 0.42323-0.0106-0.70797-2.7569-3.5938-8.7247-3.2375-8.6782 2.3673 0.30902 3.3274 5.3353 3.2817 5.2837 6.3986 7.1686 3.2056 1.9384 3.0954 1.9485 2.1875-0.19431-1.2454-2.9396-3.0206-7.7255-2.9073-7.8388 0.2153-0.21532 1.9152 2.3991 4.6137 7.0972 1.5094 2.6278 2.9977 4.9295 3.3073 5.1149 0.30959 0.18547 1.5748 0.91113 2.8117 1.6123s2.5412 1.4651 2.898 1.6976c0.5531 0.36009 0.62341 0.36386 0.47801 0.0264-0.0939-0.21789-1.0513-2.3609-2.1275-4.762-1.947-4.344-2.6437-6.0854-2.434-6.0854 0.2489 0 2.4751 3.1727 5.0602 7.2109 3.8904 6.0772 4.6385 6.8865 8.3499 9.0372l1.2444 0.72089-1.7994-3.9202c-0.9895-2.1562-2.0546-4.4469-2.3668-5.0906-2.0042-4.1322 0.9239 0.28427 3.8561 5.8162 2.3447 4.4235 1.9323 4.0266 8.4698 8.1365 0.594 0.37342 0.59407 0.37336 0.19637-0.75396-0.78829-2.2341-2.5564-8.4986-2.4334-8.6217 0.1962-0.19613 1.4918 2.0303 4.1352 7.1071 2.2785 4.3759 2.5062 4.7099 3.6726 5.3888 0.6839 0.3981 2.1898 1.3547 3.346 2.126 2.5982 1.7329 2.5422 2.0224 0.55346-2.8711-2.7558-6.7806-2.6801-6.8038 1.3405-0.41238 1.6389 2.6052 3.4003 5.0656 4.0974 5.7237 1.2029 1.1354 7.6095 5.8454 7.9613 5.8534 0.099 2e-3 -0.39242-1.2168-1.0919-2.7084-1.6037-3.4197-3.2744-7.6097-3.1027-7.7814 0.1815-0.18152 1.9512 2.2568 4.1031 5.6529 5.1475 8.1238 5.4347 8.4792 8.4041 10.414 0.9315 0.60692 1.6934 1.1262 1.6934 1.1539 0 0.1797-2.6956 10.08-2.7626 10.147-0.046 0.0461-2.2218-1.2912-4.8348-2.9714-4.0413-2.5986-4.9094-3.0551-5.8115-3.0551-1.018 0-1.1166-0.0789-2.4582-1.9735-1.5343-2.1666-1.8972-2.2401-3.3156-0.67076-0.7175 0.79381-1.7156 1.4757-2.513 1.7167-0.6613 0.19987-0.661 0.19978-0.0987-0.4284 2.5838-2.8868 1.4178-4.9521-4.9687-8.801-3.7738-2.2743-3.9856-2.354-3.0711-1.1539 5.9348 7.7874 0.85492 27.188-6.7469 25.768-0.8569-0.16014-0.85679-0.16015-0.11989 0.39326 3.8216 2.8698 0.78208 9.1269-3.4406 7.0828-3.5788-1.7325-2.5881-7.6455 1.2811-7.6455 0.853 0 0.85342 0 0.30592-0.59531-2.6375-2.8679-2.258-4.8868 1.4102-7.5044 5.888-4.2016 5.2221-12.695-1.232-15.718-1.5395-0.72104-1.6449-1.1664-0.41496-1.7529 4.0446-1.9287 8.1651 3.6176 7.7747 10.465-0.1687 2.9591-0.67248 3.9324-3.6551 7.0631-2.5384 2.6646-3.2357 4.0086-2.6484 5.1062 2.1396 3.9978 8.9962-5.0496 9.0072-11.885 0.0104-6.537-4.3106-12.524-9.4811-13.136-1.7705-0.20969-1.6407-0.58465 0.45217-1.3054l1.6428-0.56585-4.7056-2.7854c-2.5883-1.5319-13.933-8.0199-25.211-14.418-11.278-6.3978-24.192-13.732-28.697-16.299-4.5055-2.5666-8.2884-4.6669-8.4067-4.6669-0.4869 0-1.3749 3.5943-1.6748 6.7789-0.1297 1.378-0.48501 2.5047-1.4614 4.6354-4.7534 10.373-5.5266 25.831-1.6836 33.651 2.89 5.8806 2.9182 7.5871 0.12609 7.5871-0.8863 0-1.5937 0.11747-1.5937 0.26458 0 0.14552 0.59532 0.26459 1.3229 0.26459 1.3682 0 1.7712 0.34767 0.7276 0.62735-1.458 0.39069-3.0558 0.17732-3.8824-0.51832-0.5475-0.46067-0.8139-0.56366-0.8139-0.31471 0 0.52251 1.504 1.9994 2.1978 2.158 0.31899 0.0729-0.015 0.0944-0.7426 0.0481-0.72759-0.0463-1.5611-0.1599-1.8521-0.2527-0.2911-0.0928-0.0529 0.0685 0.52917 0.35812 0.5821 0.28962 1.4751 0.53357 1.9844 0.54157 1.2886 0.0208 0.42697 0.51296-1.4252 0.81442-1.259 0.2049-1.2238 0.21349 0.50333 0.11989 1.0236-0.0555 2.4817-0.34744 3.251-0.65061 0.7671-0.30236 1.4578-0.54983 1.5358-0.54983 0.3461 0-5.6801 10.428-8.5623 14.817-4.8311 7.3561-4.2767 10.118 2.4949 12.429 4.8932 1.6697 5.9534 3.738 3.3931 6.6208-1.4299 1.61-1.5057 2.3443-0.41186 3.9956 1.2236 1.8474 1.8735 2.3142 3.8659 2.7761 1.0106 0.23424 2.0071 0.47744 2.2143 0.54054 0.2666 0.0812 0.0631 0.44063-0.6966 1.2299-3.0232 3.1408-1.9517 6.9263 2.1497 7.5938 3.0446 0.49551 4.089 1.6897 4.6312 5.2953 1.2913 8.5866 7.3122 10.912 19.6 7.568 14.216-3.868 16.305-3.9171 19.764-0.46406 2.4987 2.4941 6.2824 9.3874 9.5824 17.457l1.3338 3.2623-1.4495 1.7942c-1.4907 1.845-1.9264 4.3172-1.2144 6.8947 0.3749 1.3573 2.3607 1.0887 3.8018-0.51418l1.1994-1.3338 0.3979 0.99012c0.2159 0.54461 0.31983 1.128 0.22583 1.2966-0.1815 0.32416-7.7634 9.5139-12.08 14.643-2.1848 2.5956-4.1099 5.0225-5.2472 6.6146-0.156 0.21828 0.15781-0.0132 0.69711-0.5147 0.9807-0.91179 0.98082-0.91185 0.98082-0.23461 0 2.7562-1.1384 5.071-3.1078 6.32-1.6449 1.0439-1.6547 1.0385-1.6547-0.99219v-1.7715l-0.91984 0.89142c-0.5952 0.57687-1.1148 1.477-1.4723 2.5513-1.2223 3.673-5.6015 7.3865-5.1702 4.3842 0.5327-3.7097 0.53177-3.7548-0.0532-3.7548-0.6337 0-0.9364-0.97325-0.817-2.6272 0.1752-2.4268-1.1829-2.6856-3.268-0.62218-1.5041 1.4881-1.5291 1.5378-1.5291 3.0096 0 3.5913 0.33716 3.7842 3.1554 1.8051 2.1479-1.5084 2.7135-1.5253 1.2867-0.0388-0.5212 0.54304-1.2708 1.6424-1.666 2.4428-1.2564 2.545-3.5079 4.7625-4.8354 4.7625-0.7913 0 0.23289-3.9216 1.3312-5.0974l0.76016-0.81391-0.7953-0.7953c-1.0378-1.0378-1.2377-0.93186-4.1677 2.2086-2.3451 2.5135-2.3447 2.5132-3.6447 6.9458-1.5506 5.2872-1.9318 4.7597 3.6266 5.0245 2.5037 0.11927 5.6028 0.30261 6.8864 0.40721l2.3337 0.19017-3.2598 1.7797c-1.793 0.9791-3.6174 2.0203-4.054 2.3136-1.6465 1.106-3.1002 0.64596-4.0902-1.2945-1.1383-2.2314-1.5571-2.1234-4.8178 1.2433-3.7495 3.8716-7.0666 7.9792-15.407 19.078l-5.1e-4 -5.2e-4 -7.5789 10.085 6.7582-0.016 7.845-9.186c13.225-15.487 17.018-19.538 18.645-19.915 3.9349-0.91289 3.855-0.70766-2.033 5.239-8.6853 8.7716-14.379 14.702-18.611 19.384l-3.9434 4.3625 1.9415 0.0791c1.4107 0.0572 1.9957-0.0181 2.1394-0.27492 1.7042-3.0451 10.218-14.137 13.326-17.361 3.3808-3.5074 4.0389-3.8019 8.8398-3.9543 3.8074-0.12084 3.8074-0.12074 5.4265-1.4754 2.1985-1.8393 2.6679-2.1946 2.4908-1.8841-0.083 0.14552-1.164 1.9533-2.4019 4.0168-4.7068 7.8462-7.7493 14.844-8.7499 20.126-0.1629 0.8599-0.16292 0.85989 1.6516 0.85989h1.8144l1.9492-3.6034c1.6878-3.1203 9.5704-16.072 10.871-17.862 0.5657-0.77859 0.10743 0.50089-3.2355 9.0305-2.5561 6.5221-4.4958 11.783-4.4958 12.193 0 0.1451 8.6441 0.24236 21.505 0.24236h21.505l6.0172-4.008c6.9656-4.64 6.69-3.9661 2.712-6.627-2.4913-1.6664-6.5086-3.7718-8.7436-4.5827-1.9321-0.70095-1.9257-0.72024 0.59686-1.8402 4.1923-1.8613 13.844-6.7873 14.591-7.4466 0.2329-0.20568-4.839-3.9811-7.3164-5.4462-2.4146-1.4279-2.5831-1.1512 1.9844-3.2566 13.869-6.393 21.874-8.7117 32.887-9.5266l2.2614-0.16692-0.21704-2.1637c-0.3663-3.6481-0.98909-8.3126-1.1741-8.7948-0.326-0.84949-9.7882-5.0579-15.827-7.0394-5.279-1.7321-12.268-3.1018-16.087-3.1523l-1.6449-0.0217 1.9844-0.92708c9.0805-4.2438 23.507-6.7322 34.66-5.9784 2.11 0.14294 3.8958 0.20467 3.9688 0.13797 0.5343-0.48998-5.7208-4.7283-10.471-7.0946-4.1859-2.0852-4.0178-1.6514-1.5808-4.0721 1.9708-1.9576 1.9708-1.9577 3.1088-1.617 8.4458 2.5289 19.08 14.174 27.315 29.913l1.8686 3.5719 0.03 5.0271c0.0253 4.2938 0.13384 5.5674 0.74518 8.7312 1.2608 6.5251 1.7134 10.34 2.1942 18.489l0.47025 7.969 0.15607-10.98c0.17105-12.053 0.34446-13.733 2.3916-23.146l0.86197-3.9641 2.0479 4.2085c2.5628 5.2676 4.0477 9.0199 4.9759 12.572 1.2743 4.8749 1.2768-2.7502 4e-3 -11.461-0.29532-2.0215-0.4977-3.7144-0.4501-3.762 0.1497-0.1497 3.2419 5.1605 5.1733 8.8842 3.0971 5.971 4.8015 11.097 4.8121 14.47 2e-3 0.60987 0.11761 1.1795 0.25683 1.2656 0.15489 0.0957 0.20215-0.3862 0.12195-1.2413-1.1487-12.252-2.4534-16.686-8.7039-29.576-4.7628-9.8223-5.0809-10.671-4.6793-12.512 0.16529-0.75776 0.4378-2.0328 0.60513-2.8329 0.30424-1.4548 0.30412-1.4548 2.0707 3.8365 2.1517 6.4447 4.3724 12.037 6.2508 15.742l1.4082 2.7781 0.014-2.6887c0.0243-4.7941 0.95335-8.1492 3.2174-11.617 1.6144-2.473 1.6383-2.4541 1.2645 0.97049-0.5071 4.6462-0.16606 11.367 0.91106 17.966 3.8274 23.447 3.4657 28.002-3.1269 39.357l-0.96015 1.6536h9.7849l1.8857-3.2411c5.3155-9.1387 6.6352-13.117 7.2838-21.952 0.22133-3.0151 0.69233-8.0158 1.0464-11.112 1.7018-14.882 1.392-25.46-1.0418-35.56-0.36967-1.534-0.67231-2.8331-0.67231-2.8866s0.57989-0.13325 1.2888-0.17725l1.2888-0.0801-5.4064-12.303c-14.179-32.265-31.016-69.696-31.245-69.466-0.0464 0.0463 0.10894 1.4786 0.34468 3.1833 0.23576 1.7047 0.3632 3.2691 0.2837 3.4763-0.21638 0.56389-11.611 15.987-11.726 15.871-0.13144-0.13144 1.8266-4.9096 3.9693-9.6857 5.832-13 6.2949-25.727 1.4092-38.761-0.58562-1.5624 4.2966 4.5254 7.3267 9.1359 4.0963 6.2327 5.6062 9.6846 7.9819 18.248 4.1625 15.004 16.731 23.486 27.439 18.515 0.88941-0.41285 0.96833-0.49388 0.35244-0.36071-2.4671 0.5334-3.1323 0.60782-5.424 0.61082-6.4437 7e-3 -15.265-7.6382-16.681-14.458-0.80158-3.8613-0.284-6.7768 2.5508-14.362 2.3336-6.2441-1.4318-18.85-7.8662-26.334-0.62163-0.72306-0.83809-1.0627-0.48111-0.75499 0.35697 0.30772 0.92867 0.78397 1.2702 1.0583 3.0278 2.4323 6.4981 8.8429 7.338 13.555 0.36107 2.0254 0.36138 2.0252 0.26148-1.0175-0.11119-3.3881-0.7051-5.7612-2.0417-8.1607-0.43318-0.77765-1.0304-2.2064-1.327-3.175-1.7705-5.7817-6.6397-11.536-12.011-14.194-7.5889-3.7556-19.947-2.4707-25.477 2.6489-1.8346 1.6985-1.7368 1.6689-2.1554 0.65835-0.48441-1.1694-1.7706-1.8547-3.482-1.8547-3.2185 0-6.1662-4.4043-11.866-17.73-6.31-14.752-12.298-22.191-22.447-27.888-7.8918-4.4293-16.364-6.6652-25.353-6.7055zm-60.431 26.208c-0.17593 3e-3 -0.25857 0.0908-0.36897 0.19999-0.3764 0.37233 0.39988 0.86885 8.2543 5.2813 12.386 6.9586 15.58 8.7442 24.942 13.944 4.5839 2.5462 10.001 5.5563 12.039 6.6895 2.0372 1.1332 4.5972 2.548 5.6886 3.1435s2.0387 1.0842 2.1037 1.0862c0.4171 0.0122 5.2e-4 -0.23249-25.784-15.147-4.5112-2.6094-11.655-6.7464-15.875-9.1932-8.5495-4.957-10.37-6.0162-10.999-6.0043zm140.5 25.137c9.239 0.23024 18.12 5.2731 21.955 12.843 0.7324 1.4456 0.60569 1.6302-0.25373 0.36949-4.7569-6.9779-14.268-11.569-25.791-12.451l-2.6458-0.20258 2.7678-0.35656c1.3208-0.17021 2.6479-0.23547 3.9677-0.20257zm-125.94 5.0922c4.7104 0.20658 8.186 5.2302 14.082 16.92 9.2043 18.249 10.769 20.58 18.198 27.103 3.0179 2.6503 3.0407 2.7372 2.836 10.597-0.3185 12.226-2.7297 16.79-10.201 19.307-3.7158 1.2518-7.1276 0.35493-9.8909-2.5993-1.3403-1.4328-1.8274-2.3159-4.0308-7.3127-4.2987-9.7486-9.0233-18.246-12.58-22.623-4.4712-5.5031-4.3052-7.4861 1.2077-14.419 3.8272-4.8128 4.3784-6.3512 3.3021-9.2124-1.918-5.0987-8.4205-8.5494-17.196-9.1261l-2.7781-0.18242 1.3229-0.76791c0.7276-0.42233 3.0346-1.887 5.1268-3.2546 4.505-2.9447 7.7757-4.5547 10.602-4.4307zm121.83 1.8118c0.0311 0.0114 0.0832 0.0402 0.15813 0.0879 14.036 8.914 26.539 21.904 26.929 27.975 0.0734 1.1442 7e-3 2.1262-0.16537 2.4221-0.27185 0.46796-0.28914 0.46959-0.29714 0.0202-0.0822-4.885-8.453-15.392-19.058-23.921-3.7443-3.0114-8.0334-6.7556-7.5665-6.5841zm-0.66456 2.2567c0.0386-0.0618 0.37812 0.16725 0.93689 0.55914 6.9907 4.9027 15.603 15.966 17.13 22.007 0.58898 2.3292 0.54289 2.799-0.13488 1.3777-1.5563-3.2637-8.9979-13.328-15.244-20.617-1.9814-2.3123-2.7525-3.2234-2.6882-3.3264zm-74.769 38.183c-0.94722 0.0226-1.8478 0.67941-2.0779 1.9058-0.203 1.0821 0.4458 2.5994 1.2852 3.005 2.0338 0.98262 4.0023-1.2926 2.9807-3.4453-0.48004-1.0116-1.3522-1.4855-2.188-1.4655zm0.31781 7.3442c0.2902 0 0.39946 0.30235 0.39946 1.1245 6e-3 3.0373 0.25654 3.8423 1.2526 4.0292 5.6984 1.069 8.2249 16.141 3.6096 21.533-1.1457 1.3385-1.0617 2.169 0.46508 4.6018 2.0865 3.3245 2.6794 6.3763 1.6288 8.3835-0.76169 1.4553-0.96305 1.2741-2.5694-2.3125-1.5229-3.4002-1.5226-3.4001-1.2361-4.9501 0.6047-3.271 0.42694-4.1748-0.70176-3.5698-0.5435 0.29132-1.1984 0.52968-1.4552 0.52968-0.7066 0-0.5858 1.0095 0.3638 3.0386 0.9897 2.115 1.1686 6.082 0.40773 9.0346-0.7462 2.8953-1.0307 3.4116-1.5596 2.8272-2.1083-2.3297-2.795-8.4316-1.3146-11.682 1.3108-2.8785 1.0512-3.4242-1.7777-3.7357-0.0581-6e-3 -0.0332 1.097 0.0558 2.452 0.1573 2.3949 0.13002 2.5614-0.98547 5.9645-1.3763 4.1989-1.2671 4.0636-2.1146 2.6174-1.4564-2.4851-1.2668-4.4397 0.75499-7.7773 1.8673-3.0826 1.9813-3.5585 1.0795-4.5098-5.3126-5.6039-3.9822-21.095 1.9317-22.493 1.0795-0.25531 1.3224-0.92285 1.3534-3.7155 0.0115-1.0516 0.11146-1.3891 0.41186-1.3891zm8.6594 2.544c0.12453-0.0202 0.21369-0.0207 0.25425 4e-3 0.2151 0.12904 1.802 2.8649 1.802 3.1068 0 1.0191-4.6195-0.38445-5.395-1.6392-0.14123-0.22853 2.4671-1.3298 3.3388-1.4712zm-8.5705 4.9274c-0.76327 0.0141-1.5625 0.29989-2.3776 0.87281-4.3496 3.057-3.6541 16.216 0.96583 18.27 4.7067 2.0919 8.6144-5.0167 6.7815-12.336-1.1128-4.4439-3.0799-6.8486-5.3697-6.8063zm12.199 0.37879c0.3693-0.0436 1.2849 2.2615 1.3219 3.3285 0.0473 1.3552-2.9955 0.16949-4.3873-1.7095l-0.9064-1.2232 1.7952-0.1757c0.9872-0.0965 1.9668-0.19534 2.1766-0.22014zm-20.5 3.7553c0.55276-0.0948 0.37496 0.37292-0.28474 2.4696-0.3801 1.2081-1.0349 2.6663-1.4552 3.2406l-0.76429 1.0444v-2.4159c0-3.1509 0.18562-3.5976 1.6991-4.0959 0.3559-0.11717 0.62086-0.21127 0.80512-0.24288zm18.296 1.9436c0.31159 5e-3 0.7587 0.0485 1.3586 0.10077 2.6654 0.23216 2.8783 0.3652 3.2479 2.0257 0.7597 3.4133-1.7175 3.2357-4.1982-0.30076-1.0563-1.5059-1.343-1.8406-0.40824-1.8257zm79.916 2.0867c0.1728-0.16413 0.29946 2.8066 0.32298 8.309 0.048 11.246-1.4471 22.146-5.0007 36.454-1.674 6.7398-1.7428 6.8425-1.9849 2.9688-0.39498-6.3214 0.21232-11.401 2.6252-21.969 2.3336-10.22 3.3125-16.32 3.7786-23.539 0.0921-1.4264 0.18036-2.149 0.2589-2.2236zm-29.647 0.0884c0.22911-0.15049 0.2197 1.2891 0.16795 4.5444-0.0459 2.8949 0.0696 9.4012 0.25683 14.458 0.1869 5.0569 0.28074 9.1872 0.20774 9.1782-3.7511-0.44254-4.7078-14.611-1.6919-25.05 0.55895-1.9345 0.88118-3.0135 1.0594-3.1306zm-33.783 1.4475c0.31777 0.16031 0.89078 2.9344 1.3493 7.0378 0.7257 6.4949 3.2808 12.064 6.5546 14.289 0.5337 0.36268 0.82683 0.6599 0.65113 0.6599-1.5415 0-12.308 8.7589-19.542 15.899-4.5367 4.4775-4.1089 4.2122-4.9599 3.0846-3.9828-5.2778-0.39891-19.49 8.6739-34.396 1.5214-2.4996 1.6453-2.5176 1.8862-0.2682 0.6061 5.6594-0.62953 15.14-2.9233 22.427-0.4715 1.4976 1.1859-2.0539 2.6841-5.7516 2.7689-6.8334 5.3702-17.2 5.3862-21.46 4e-3 -1.1277 0.0959-1.5947 0.24029-1.5219zm-35.093 1.512c0.12693 0.0145 0.24021 0.065 0.3328 0.15762 0.2098 0.20983-0.48458 4.0949-0.95808 5.3604-1.1181 2.9885-1.8324 1.9389-1.8324-2.6934 0-1.2675 1.5692-2.9261 2.4577-2.8246zm18.561 1.7079c0.36268-0.0289 0.98089 0.0706 1.9549 0.23875 3.0233 0.52192 3.5298 1.4596 2.6582 4.9211-0.5913 2.348-3.4652 0.13164-4.7594-3.6706-0.35275-1.0364-0.45823-1.4412 0.14625-1.4893zm-17.076 5.2968c0.65449-0.0669 1.3337 1.8692 1.325 4.0773-1e-3 0.43656-0.46276 1.6867-1.0253 2.7781l-1.0227 1.9844-0.71158-1.5394c-1.3147-2.8442-0.98845-4.8574 1.1576-7.1438 0.0904-0.0963 0.18349-0.14702 0.27698-0.15658zm13.57 0.68317c0.47246-0.0153 4.2998 1.9044 5.0431 2.5595 0.9708 0.85559 0.93901 1.7934-0.13229 3.8912-1.0537 2.0636-1.253 2.1367-2.1482 0.78393-0.5871-0.88718-2.8002-6.567-2.8102-7.2047-2.3e-4 -0.0192 0.016-0.029 0.0475-0.03zm66.647 13.581c1.8737 0 5.0878 7.5076 5.4054 12.627 0.2775 4.4728-0.1169 5.4941-0.99684 2.5802-0.3944-1.306-1.5929-5.2618-2.6634-8.7907-1.0705-3.5289-1.856-6.4162-1.7451-6.4162zm-42.853 5.07c0.0625-3e-3 0.11063 0.01 0.14263 0.0419 0.4728 0.4728-1.7855 3.6174-3.0572 4.2571-0.9352 0.47036-2.1435 0.74282-2.1435 0.48317 0-0.91731 4.1212-4.7309 5.0581-4.7821zm14.214 1.9069c0.7013 0.0653 1.4822 0.58299 4.408 2.558 2.1828 1.4734 3.7307 2.6126 3.4396 2.5311-6.2017-1.7362-13.086 0.21689-26.029 7.3846-7.6593 4.2416-7.0186 4.0128-6.0802 2.1683 3.2619-6.4122 14.344-13.291 23.51-14.593 0.29258-0.0416 0.51761-0.0703 0.75138-0.0486zm20.098 1.1963c0.19813 0.0541 1.0783 1.7089 3.4602 6.2962 4.4312 8.534 8.2755 14.708 12.517 20.102l1.2821 1.6304-0.20257 3.6613-0.20309 3.6608-2.0944-0.186 0.95137 1.0537c0.95169 1.0534 0.9518 1.0533 0.82268 4.5909-0.2384 6.5321-0.26183 6.5696-1.7642 2.8045-7.6741-19.232-12.654-33.746-14.693-42.82-0.11499-0.5118-0.16602-0.81784-0.076-0.79323zm-41.178 2.6748c0.9069 0-1.6557 4.1603-3.1745 5.1537-1.0698 0.6997-2.4262 1.1214-2.4262 0.75448 0-1.1664 4.4951-5.9082 5.6007-5.9082zm24.856 2.8934c2.3213 0.0523 4.5287 0.45949 6.6921 1.2103 3.3604 1.1661 2.5494 2.3069-0.98185 1.3813-4.5282-1.1869-12.923 0.12303-19.841 3.0964-12.485 5.3658-24.629 14.433-34.112 25.471-1.4793 1.7218-2.1133 2.2549-3.0665 2.5797-1.2497 0.42581-2.5226 0.5015-3.252 0.19276-0.3251-0.13762 0.25553-0.80098 2.4732-2.8257 1.5939-1.4552 5.0303-4.9289 7.6362-7.7189 7.7508-8.2984 11.887-11.157 26.723-18.469 6.9624-3.4313 12.622-5.0326 17.729-4.9175zm-32.529 3.5006c0.0503-8e-3 0.0893 1e-3 0.11627 0.0284 0.686 0.68596-1.6816 4.7018-3.4546 5.8596-1.5054 0.98306-1.8378 0.91543-1.3415-0.27234 0.71241-1.7049 3.9258-5.5028 4.6798-5.6157zm-6.9965 7.2037c0.97452 0.0743-0.70228 3.5878-2.6577 5.3459-1.4816 1.3321-2.0319 1.4659-2.0319 0.49454 0-2.0137 2.4416-5.194 4.4586-5.8079 0.0892-0.0272 0.16602-0.0375 0.23099-0.0326zm-21.523 3.9067c-0.26283-7e-3 -0.88644 0.59892-2.1885 2.0433-1.8801 2.0856-1.8805 2.0858-1.8805 4.468 0 2.5753-0.0211 2.5423 2.1167 3.3156h2e-3c1.5644 0.56588 3.5729-1.624 3.3481-3.6509-0.5439-4.8909-0.54373-4.6294-0.0103-4.6406 0.3266-7e-3 0.20203-0.13896-0.36277-0.38447-0.4729-0.20556-0.8599-0.5581-0.8599-0.78341 0-0.23502-0.0449-0.36437-0.16433-0.36742zm14.248 2.9435c1.0656 0.0853-0.84688 4.4917-2.9724 6.1738-1.5061 1.1919-1.6839 1.1488-1.4583-0.35553 0.3082-2.0556 1.8217-4.2842 3.7832-5.5697 0.28183-0.18471 0.49528-0.26075 0.6475-0.24856zm-20.039 3.7135c-0.53521-0.0119-1.2918 0.64148-2.3694 1.9027-1.8119 2.1209-1.6736 6.9871 0.20877 7.3536 1.1044 0.21499 1.2248 0.17885 2.1642-0.64596 1.3618-1.1957 1.4085-1.3757 1.2092-4.6669-0.16118-2.6615-0.4794-3.9271-1.2128-3.9434zm12.835 2.4443v1.1069c0 1.6141-0.93028 3.8419-2.1141 5.0617-1.9328 1.9916-2.7578 2.1869-2.5709 0.60875 0.2206-1.862 0.93105-3.0839 2.945-5.0653zm-18.047 3.7347c-0.64254 0.0111-1.611 0.9041-3.0236 2.6272-1.3905 1.6961-1.2131 5.959 0.27492 6.6068 2.6936 1.1726 3.8623-0.27738 3.8623-4.7925 0-3.0118-0.28751-4.4558-1.1136-4.4416zm10.427 3.5264c0.9584 0-0.15717 3.7328-1.5927 5.3294-2.4383 2.712-3.7144 1.8376-2.1962-1.5048 0.439-0.96651 3.2705-3.8246 3.7889-3.8246zm-15.952 3.0391c-1.5249 0.0462-3.685 3.0464-3.654 5.5413 0.0334 2.7064 0.18687 3.2149 1.1643 3.8582 1.3666 0.89936 2.1073 0.52428 3.6608-1.8552 0.9836-1.5064 0.65984-6.3792-0.48576-7.3143-0.20312-0.1658-0.43571-0.23752-0.68523-0.22996zm24.163 0.66766c0.72447-1e-3 1.2609 0.13404 1.2609 0.4439 0 0.4118-1.8186 2.5638-2.3322 2.7595-1.9503 0.74333-5.4951 0.0981-4.2447-0.77256 0.3432-0.23896 1.1267-0.89649 1.7415-1.4614 0.63744-0.5857 2.367-0.96735 3.5745-0.96945zm-6.473 3.6427c0.0904-2.1e-4 0.15924 0.0306 0.22014 0.0811 0.4625 0.38379 3.1403 0.49476 4.516 0.18707 0.7981-0.1785 0.67191 0.0393-2.6076 4.4979-1.8956 2.577-3.5061 4.8343-3.5791 5.0162-0.0951 0.23733-0.97893 0.33073-3.1295 0.33073-3.6781 0-4.0363 0.12982-5.426 1.9704-1.109 1.469-1.1087 1.4692-2.7967 1.4692-2.2546 0-2.3562 0.16294 3.1502-5.0643 7.3343-6.9624 9.0196-8.4869 9.6526-8.4884zm68.285 5.086c-0.0594 0-0.018 1.0418 0.092 2.3151 0.1102 1.2733 0.1854 3.3867 0.1664 4.6964-0.0339 2.3812-0.0342 2.3809 0.94568 2.4639 0.8418 0.0713 1.4273 0.50938 4.1548 3.1089 2.9906 2.8503 3.6752 3.3679 3.6752 2.7786 0-4.8501-6.1821-15.363-9.0341-15.363zm-87.173 12.227c0.11965 0.017 0.20357 0.18292 0.29559 0.47284 0.1061 0.33443-0.0399 0.82157-0.39687 1.3229l-0.56483 0.79375h4.6483c2.5565 0 4.6454 0.0893 4.6354 0.19844-7e-3 0.10914-0.99471 1.3891-2.1952 2.8443l-2.1828 2.6458-2.1043 0.0594c-3.6142 0.10239-4.9216-0.63314-6.4316-3.6189l-1.0769-2.1291h1.7079c1.7079 0 1.708-1.1e-4 2.5699-1.3183 0.59788-0.91428 0.89612-1.2996 1.0955-1.2712z" stroke-width=".26458"/></g></svg>