<?xml version='1.0' encoding='utf-8'?>
<svg xmlns="http://www.w3.org/2000/svg" enable-background="new 397.9999 -25.0909 1764.0001 1650.1812" version="1.1" viewBox="397.9999 -25.0909 1764.0001 1650.1812">
<path d="m457.74 1054c-8.3155 4.6185-15.368 4.1322-22.896-0.5356-8.0219-4.9738-10.576-11.047-9.9311-20.404 1.932-28.035 15.466-51.723 27.491-75.936 2.11-4.2484 7.7729-6.6392 11.507-10.19 15.412-14.655 26.502-32.65 38.332-50.063 9.9492-14.645 19.686-29.437 31.442-42.758 27.859-31.567 52.33-30.995 76.741 3.0085 5.8983 8.2162 12.497 10.332 21.384 10.727 23.623 1.0479 46.865-3.6147 70.367-4.3541 9.8121-0.3087 19.56 0.0153 29.237 1.3856 17.265 2.4451 31.907 9.9615 43.146 23.537 17.967 21.702 35.892 20.215 57.421 6.9957 7.5339-4.6257 14.598-10.01 21.989-14.878 10.624-6.9964 21.888-12.255 35.073-11.055 3.6441 0.3316 5.4953-0.9628 6.9039-4.2952 6.733-15.929 16.922-29.721 28.23-42.539 6.4352-7.2949 9.5458-15.092 10.033-24.591 1.1656-22.745 11.119-40.792 29.616-54.222 17.78-12.909 35.158-26.401 54.424-37.115 23.232-12.919 48.021-19.238 74.693-16.995 4.8369 0.4069 8.5389-0.0475 11.766-4.5837 4.9464-6.9528 13.056-9.8011 20.504-13.278 6.6273-3.0939 13.564-5.6335 19.29-10.332 7.2516-5.9501 9.369-14.43 5.8564-24.041-3.1155-8.5246-9.5729-11.979-18.543-11.919-12.202 0.0822-23.244 4.4924-34.429 8.4581-11.187 3.967-22.414 7.8461-33.456 12.191-5.8126 2.2872-8.762 0.1038-10.137-5.165-1.5355-5.8838-2.4984-11.916-4.0001-17.81-1.0262-4.027-2.4189-7.704-7.9841-4.4342-4.1395 2.4322-8.9912 0.9897-13.505 1.4622-7.0029 0.7327-9.3584-3.1436-9.4658-9.2026-0.1136-6.4088 0.3354-12.838 0.0013-19.229-0.3037-5.8126-2.306-7.5895-7.8494-3.2781-13.044 10.145-29.16 13.626-44.405 18.7-6.5071 2.166-8.7458-4.3037-9.9897-9.2343-1.2593-4.9918-1.0919-10.325-2.0065-15.427-0.9912-5.529-2.6684-10.27-10.211-6.7533-2.9333 1.3678-6.5339 1.5672-9.8635 1.7772-14.776 0.9323-14.735 0.8528-18.118-13.032-0.7889-3.2375-2.1672-6.33-2.9818-9.563-1.6219-6.4375-5.4172-8.6249-12.204-9.2793-17.73-1.7095-30.19-15.908-30.623-33.128-0.0809-3.2214 1.5494-5.2848 3.9618-6.679 2.6108-1.5092 5.5584-2.4227 8.299-3.723 3.7434-1.7757 9.8048-2.1246 9.8724-6.8133 0.0591-4.0945-5.8381-4.1948-9.2538-5.8302-6.551-3.1366-7.8541-7.902-4.1797-14.084 0.2946-0.4956 1.2863-0.7851 1.3083-1.2042 0.7416-14.09 12.107-11.886 20.865-13.648 12.845-2.585 25.93-4.5637 36.59-13.129 2.2391-1.7991 6.0241-3.5759 4.8447-6.8992-1.0292-2.8997-4.9813-3.1381-7.9214-3.5885-6.8342-1.0468-13.407 0.2916-19.59 3.2286-17.471 8.3004-32.639 3.9971-46.245-8.4225-4.9551-4.5232-9.592-9.4013-14.279-14.21-5.1266-5.26-10.108-10.917-16.611-14.282-9.059-4.6874-17.283-8.4588-10.601-21.338 2.3836-4.5943-2.0397-7.3161-7.2515-7.7312-13.687-1.0901-27.365-2.5517-40.381-7.3009-17.089-6.2356-30.357-16.549-36.788-34.396-1.6512-4.583-0.9112-6.1113 3.8745-5.9995 4.2726 0.0998 8.5558-0.0171 12.828-0.1984 2.6985-0.1144 6.474-0.0803 7.2078-2.6398 1.0107-3.5255-2.9922-4.7656-5.4479-6.3081-3.1165-1.9576-6.5616-3.1815-10.296-3.4963-4.2618-0.3592-8.5564-1.4268-12.765-1.1379-21.107 1.4492-34.334-9.6409-44.219-26.727-6.556-11.332-11.861-23.461-20.414-33.55-3.8589-4.5522 0.3288-5.2202 2.8333-5.8877 7.5187-2.0041 15.146-1.4745 22.616 0.4727 8.2476 2.1501 16.418 4.5944 24.638 6.8539 2.0476 0.5628 4.1372 1.1533 6.2386 1.3069 6.827 0.4988 14.881 0.9523 17.956-5.8786 2.881-6.4008-4.0434-10.634-8.1502-14.934-3.1573-3.3054-6.6373-6.3105-9.695-9.7006-2.4971-2.7686-2.6727-6.2899-0.8299-9.3776 1.6655-2.7906 4.9594-2.4156 7.5157-1.7636 5.8898 1.502 11.664 3.4706 17.454 5.346 2.6177 0.8479 5.1783 2.12 7.9602 0.8832 2.2418-0.9966 4.615-2.1707 5.2197-4.7551 0.6461-2.761-2.13-3.4165-3.7202-4.5408-8.2954-5.8646-17.92-9.0649-27.123-13.063-12.25-5.3217-19.189-14.549-21.69-27.471-1.3917-7.1897 1.2968-9.9057 8.2109-7.7423 2.2704 0.7103 4.2116 2.4178 6.3876 3.4999 2.1802 1.0841 3.9514 5.3476 6.7087 2.2919 2.1419-2.3737-0.8496-5.0894-2.1838-7.2528-6.2875-10.195-16.513-16.096-25.734-23.082-9.6662-7.3229-18.076-15.549-20.48-28.17-0.503-2.641-2.4703-5.7264-0.3198-7.7903 2.2173-2.128 5.0216 0.092 7.5433 1.0276 2.2503 0.8349 5.7169 3.9016 6.6695-0.4993 1.5908-7.3498 5.2514-3.7035 8.354-2.1365 10.4 5.2528 19.314 12.807 29.058 19.075 7.3253 4.7119 14.734 9.6627 25.126 8.7993-5.0226-11.432-10.15-22.086-14.425-33.071-6.4234-16.507-12.531-33.164-8.4927-51.504 1.0695-4.8579 2.8199-9.3236 5.4361-13.469 5.6783-8.9967 14.712-11.66 24.072-7.3765 2.2751 1.0414 1.8189 2.892 1.918 4.5869 0.8977 15.343 8.6422 26.926 19.737 36.869 10.654 9.5477 22.103 18.548 26.231 33.289 1.0593 3.7828 3.506 2.5606 5.6853 1.2702 6.9345-4.1061 11.54-1.1791 16.585 4.1019 21.346 22.346 47.782 35.113 78.906 40.67-2.4797-6.3394-7.4907-9.6854-10.608-14.398-5.2261-7.8997-4.4567-11.356 3.6314-16.084 4.6439-2.7148 12.578-2.703 13.458-7.8357 0.6027-3.5141-5.7386-7.9033-8.2296-12.322-8.008-14.205-14.612-28.902-11.935-45.901 0.8224-5.2226 2.1837-10.993 8.2649-11.784 6.7422-0.8775 10.546 3.9463 12.508 9.9116 1.8993 5.7744 3.3882 11.682 5.1483 17.504 1.5842 5.2406 4.5656 9.1229 11.964 10.82-4.0901-13.245 2.6616-22.205 9.5883-31.274 3.8474-5.037 6.6093-10.133 5.0538-17.551-1.9921-9.5002 7.8929-21.501 17.463-24.16 3.5642-0.9904 4.8743 0.6792 6.5391 3.097 6.4196 9.3229 11.714 19.274 16.698 29.4 7.9402 16.132 17.39 31.201 27.407 46.212 8.0134 12.009 15.776 22.639 28.174 29.744 4.7592 2.7273 9.4641 5.6937 14.524 7.7283 44.04 17.708 72.382 51.636 95.028 91.503 8.8419 15.565 12.831 32.789 17.177 49.928 4.6129 18.193 10.904 35.602 26.994 48.542 0.7805-7.0004 4.6714-10.997 10.108-14.281 9.6273-5.8159 9.6636-10.332 0.6395-16.625-2.7955-1.9496-4.1603-4.9284-4.2772-7.7737-0.3077-7.4884-4.0148-7.4299-9.7169-5.766-3.5229 1.028-8.0244 2.9238-10.271-2.3917-1.9437-4.5986 0.7728-7.4818 3.266-11.274 6.1204-9.3099 12.967-10.089 23.102-6.7947 9.8762 3.2105 19.913 0.1033 28.669-5.8619 6.8311-4.6536 11.471-8.7428 6.7168-18.913-6.3358-13.554-0.0161-26.762 6.6315-39.718-4.9391-0.7336-9.4525 1.6587-14.207-0.0103-11.756-4.1269-14.659-14.29-6.1462-23.222 8.1107-8.5096 18.619-9.8041 29.524-9.3945 13.2 0.4959 25.888 3.8228 38.482 7.5561 12.688 3.7612 20.123-0.0521 23.281-13 1.225-5.023 2.6415-6.8409 8.0602-6.7959 7.3491 0.0609 14.247-2.987 21.009-5.7919 6.7517-2.8004 13.426-5.787 20.144-8.6704 18.046-7.746 35.466-7.518 52.26 3.6704 6.593 4.3925 13.738 7.9531 20.358 12.309 10.659 7.0132 21.62 7.9264 32.911 2.1313 14.232-7.3045 28.327-11.035 43.236-1.5536 18.753 11.926 34.552 26.31 40.931 48.476 2.0179 7.0117-0.3171 14.066-3.2092 20.465-5.7834 12.796-5.1022 25.261-0.2296 38.136 3.5457 9.368 6.6436 18.915 8.4675 28.875 1.6469 8.9924 1.6962 17.939-2.0504 26.057-3.7838 8.1983-0.8492 13.293 5.2673 17.88 5.6121 4.2085 11.65 7.8788 17.051 12.332 10.172 8.388 10.902 13.394 4.6395 24.63-8.8354 15.851-12.778 33.486-18.415 50.512-3.2493 9.8151-7.4 19.336-10.522 29.188-3.5354 11.156-11.736 14.874-22.288 15.153-8.8512 0.2339-17.714-0.0121-26.572 0.0444-6.057 0.0386-11.856 0.9606-17.805 6.0313 17.567 3.5847 33.877 3.6466 50.186 2.582 26.828-1.7513 53.63-3.8458 80.424 0.4204 2.6517 0.4222 5.2671 0.6781 7.6915-1.5745 18.093-16.811 40.916-21.964 64.248-25.981 31.567-5.4352 63.733-6.2406 95.184-12.601 22.536-4.5572 22.468-4.324 12.529-24.59-27.284-55.633-60.445-107.97-90.586-162.01-13.666-24.498-26.712-49.306-38.372-74.83-0.8779-1.9218-1.5667-4.3563-3.1194-5.4769-13.836-9.985-21.08-25.124-30.644-38.46-2.833-3.9501-5.6324-8.6424-9.63-10.903-11.328-6.4052-15.986-16.908-21.016-28.008-6.451-14.236-18.301-25.104-26.58-38.278-1.947-3.0984-6.5719-6.799-3.92-10.22 5.0826-6.5575 5.865-16.872 15.483-19.474 5.5303-1.4957 10.755-0.4643 14.873 4.4424 6.0253 7.1793 8.6907 15.38 8.0469 24.555-0.3641 5.1906 1.0651 9.324 4.2125 13.426 13.902 18.119 29.263 35.304 37.511 57.157 0.4908 1.3005 1.7048 2.4859 2.8606 3.3544 28.664 21.537 59.302 39.167 93.445 50.982 29.341 10.153 58.207 21.725 84.975 37.987 30.115 18.296 51.748 43.134 63.063 76.812 6.1058 18.173 12.898 36.102 21.945 53.117 2.5186 4.7368 5.3655 6.5485 10.707 6.1384 11.426-0.877 22.489 0.7249 32.742 6.4117 5.2936 2.9362 8.1292 6.7216 7.5868 13.206-0.4548 5.4365 0.0251 10.998 0.5632 16.458 0.5217 5.2926 2.0669 11.284 7.3839 12.795 7.7896 2.2131 7.3389 6.9413 6.724 12.977-2.4248 23.808 2.2885 47.573 0.6361 71.385-0.2032 2.9296 1.1174 4.4021 3.5083 5.6555 44.62 23.392 62.602 63.616 69.797 110.63 6.3735 41.645 5.5793 83.583 2.2329 125.25-4.4502 55.408 1.6414 108.21 28.114 157.94 9.2837 17.44 17.085 35.678 23.331 54.545 2.333 7.0477 0.2305 6.9886-5.5713 5.7151-16.85-3.6989-27.15-14.699-33.294-29.869-5.8203-14.372-10.202-29.331-16.108-43.665-12.117-29.406-27.914-56.966-45.317-83.463-40.066-61.004-74.928-124.92-108.55-189.6-12.545-24.132-27.646-46.698-45.182-67.606-4.0243-4.7981-6.2822-5.6234-10.902-0.4187-12.41 13.982-28.954 22.186-45.402 30.284-14.772 7.2737-29.834 14.002-43.307 23.615-2.9446 2.1008-6.0488 2.561-9.446 2.6943-46.691 1.8318-93.394 3.5222-139.87 8.8157-26.675 3.0385-53.142 7.3762-79.377 13.106-3.8015 0.8303-6.4048 2.7803-8.1563 6.4724-5.3009 11.175-8.2305 22.904-9.1716 35.183-0.2444 3.1868-0.4907 6.1108 4.2255 6.2417 25.293 0.7023 48.563 11.427 73.308 15.025 5.5809 0.8116 8.4335-0.1219 11.928-4.9211 19.323-26.54 44.911-43.723 77.842-48.266 16.228-2.2386 30.831 2.5697 42.93 13.936 5.5505 5.2142 4.8774 7.9511-2.4948 10.774-4.0388 1.5464-8.261 2.0153-12.593 1.9593-8.8583-0.1146-17.719-0.0876-26.578-0.0839-5.6689 0.0024-10.673 1.6111-16.047 7.0776 14.798-2.215 27.98-3.2819 40.887 0.3975 20.604 5.8728 36.584 17.601 46.415 37.158 2.4935 4.9603 1.9456 8.4447-2.105 12.039-12.223 10.847-25.977 11.329-40.108 5.2715-5.0543-2.1663-7.7487-1.8118-11.603 2.0166-18.436 18.311-40.89 32.045-58.673 51.128-1.9591 2.1023-3.9509 2.1917-6.554 1.6915-27.358-5.2567-54.797-2.4886-82.205-0.5552-24.394 1.7209-48.766 3.5131-72.99-1.6154-2.1528-0.4556-4.2863-1.3058-5.5607 1.2731-5.1067 10.332-16.856 16.27-20.481 26.653-4.5005 12.89-14.089 16.523-24.775 20.867-16.27 6.6148-30.184 17.119-43.488 28.458-3.2289 2.7518-4.6444 6.1526-5.7903 10.036-10.741 36.402-30.978 66.131-62.829 87.206-5.5461 3.6698-4.4507 6.3303-2.1913 10.899 15.53 31.405 32.975 61.844 47.162 93.928 13.881 31.39 24.706 63.559 27.265 98.114 0.5305 7.1621 5.5754 12.939 9.4893 18.391 13.398 18.662 10.46 37.946 3.5151 57.367-2.9497 8.2484-7.621 15.915-11.836 23.669-6.3507 11.682-9.9525 23.532-9.9298 37.355 0.0116 7.1438-7.157 14.422-11.508 21.372-1.2255 1.9575-3.2572 3.1932-3.7493 5.9147-8.0436 44.49-28.505 83.953-49.997 122.99-2.645 4.8042-4.985 9.7999-7.9303 14.41-7.8615 12.306-13.765 23.634-0.6433 37.217 7.0348 7.2814 7.7047 19.018 10.602 28.918 7.9119 27.037 23.314 46.483 51.563 54.222 7.8787 2.1583 15.629 5.1764 22.678 9.5836 14.084 8.8059 17.4 22.673 9.4386 37.067-6.0582 10.952-13.247 16.962-27.352 15.436-25.465-2.7561-51.171-3.1945-75.406-12.963-3.4438-1.3883-6.572-2.3632-8.1553-6.4292-6.8145-17.505-19.646-29.861-35.028-39.942-14.334-9.3942-30.096-16.106-45.107-24.226-3.1987-1.7306-5.6285-0.9316-8.5585 0.3689-6.7954 3.0157-13.959 4.3251-21.428 3.5514-15.899-1.647-26.114-12.394-27.429-28.548-0.7986-9.8135 1.8602-18.685 6.48-27.166 6.7827-12.453 16.122-22.972 25.475-33.44 3.7383-4.1842 4.8345-7.7823 3.5488-13.806-5.1425-24.093-4.1824-47.922 7.1487-70.469 1.4833-2.9512 2.1215-5.0814 0.1235-8.2925-18.136-29.149-15.037-59.251-3.3511-89.539 7.1718-18.588 17.048-35.79 28.663-51.896 4.0464-5.6111 4.4515-10.794 2.823-17.028-3.3021-12.641-9.4216-24.533-10.211-37.826-0.1869-3.1445-2.4579-2.9856-4.4208-3.4612-16.201-3.9263-29.458-13.066-41.687-23.855-33.106-29.208-64.501-59.908-84.304-100.28-2.5416-5.1818-6.2456-3.4929-10.071-2.9202-31.763 4.7544-60.699 17.619-89.423 31.107-25.98 12.2-52.236 24.481-81.051 27.173-19.937 1.8624-36.297 7.9366-51.102 21.698-12.849 11.943-28.865 11.227-44.636 4.283-12.69-5.587-23.441-14.212-34.981-21.615-11.659-7.4786-22.598-16.8-38.462-12.664-4.8198 1.2566-9.8904-2.3864-14.729-4.1997-39.01-14.618-75.635-33.829-110.32-56.861-9.653-6.4097-19.688-12.248-29.616-18.237-2.4552-1.4814-4.6099-3.4706-8.1354-0.954-17.941 12.808-38.444 21.146-57.31 32.372-20.516 12.208-37.221 27.569-44.292 51.385-1.424 4.7965-15.404 9.2883-23.197 8.1354-7.9409-1.1749-8.4342-6.6633-7.9624-12.919 0.1347-1.7773 0.0212-3.5738 0.0212-6.328zm1592.3-274.93c5.929-10.143 6.0034-19.61 3.7512-28.848-6.166-25.291-8.7289-50.95-10.372-76.872-1.7727-27.968-4.1177-55.934-10.455-83.405-8.7629-37.988-25.815-69.68-63.541-86.148-4.6432-2.0267-4.9875-5.6082-4.991-9.6978-0.0027-3.0522 0.4862-6.2018-4.3591-6.1462-11.752 0.1348-22.748-3.8313-33.988-6.5504-7.3964-1.7894-14.947-3.3568-22.504-0.3301-6.7278 2.6947-10.1 5.8004-7.0074 14.414 11.189 31.163 26.781 60.026 43.786 88.238 19.657 32.611 40.244 64.705 55.066 99.982 1.7598 4.188 3.0591 8.8231 5.7748 12.316 19.54 25.128 36.927 51.496 48.839 83.049zm-177.07-381.94c-9.6815-21.338-4.0302-41.177 2.8298-60.927 0.9884-2.8456 2.6119-5.3663 2.3092-8.679-2.1855-23.915-9.6816-45.803-24.227-65.114-18.559-24.639-43.361-41.846-68.966-58.106-24.464-15.536-49.827-29.693-72.729-47.634-2.1079-1.6514-4.3287-6.0543-7.4781-3.2666-4.158 3.6805 1.5757 5.3511 2.8064 7.9749 0.7761 1.6541 1.588 3.2913 2.3696 4.9428 10.564 22.326 22.249 44.058 34.452 65.526 31.769 55.89 66.95 109.91 92.915 168.98 2.3893 5.4354 5.9233 5.066 10.372 3.8801 8.4745-2.2595 15.908-7.6324 25.346-7.5771zm-555.37 34.358c-11.786-2.9796-23.79-3.5219-35.837-3.7552-8.0226-0.1553-15.918-1.2166-22.583-6.127-3.7823-2.7867-7.0592-6.5735-5.4348-11.66 1.5106-4.7297 6.2251-4.0158 10.117-4.255 0.9138-0.0562 1.832-0.0423 2.748-0.0599 3.0452-0.0585 5.4763-1.3275 6.3745-4.2756 1.0519-3.4521-1.7158-5.0135-4.1133-6.2374-5.8191-2.9706-12.03-4.4929-18.581-3.3137-6.5869 1.1857-13.272 2.1704-19.643 4.1265-7.7675 2.3849-9.3353-0.4252-8.463-7.5959 1.452-11.938 8.5103-19.293 18.804-23.953 5.2908-2.3951 5.0101-5.3572 0.9095-7.6702-7.9369-4.4767-16.733-1.833-25.178-1.5829-1.7235 0.0511-1.7218 2.2404-1.5851 3.7659 0.7874 8.7903-2.7863 16.706-4.8306 24.951-2.8751 11.595-2.0222 21.873 8.1497 30.621 12.752 10.967 25.762 21.464 39.59 31.051 12.274 8.5095 23.563 8.0076 35.199-1.1047 7.1526-5.6014 14.472-11.299 24.358-12.925z"/>
</svg>