<?xml version="1.0" encoding="UTF-8"?>
<svg width="256.38" height="256.38" viewBox="0 0 256.375 261.75" xmlns="http://www.w3.org/2000/svg">
 <path d="m126.92215,2.21832-1,.15625h-1-1-1l-1,.1875h-1l-1,.15625h-1l-1,.1875-1.1875.15625h-1.00001l-1,.15625-1,.1875-1.15625.15625 2,14.03125-1.1875.15625-1,.15625-1,.15625-1,.1875-.84375.15625-1,.15625-.96875.1875-.84375.15625-1,.15625-.84375.34375-1,.15625-.84375.15625-1,.1875-.84375.15625-.8125.34375-1.00001.15625-.84375.34375-.84375.15625-1,.34375-.84375.15625-.8125.34375-1.03125.15625-.8125.34375-.8125.34375-1.03125.3125-.8125.34375-1.03125.34375-.8125.34375-1,.3125-1,.5-1,.34375-.84375.5-5.6875-13.1875-1,.5-1,.5-1,.3125-1,.53125-1,.5-1,.5-1,.5-1,.5-1,.5-1,.5-.84375.5-1,.65625-1,.5-1,.5-.84375.5-1,.6875-1,.5-.8125.65625-1,.5-1,.65625-.84375.6875-1,.5-1,.65625-.84375.6875-1,.65625-.84375.65625-1,.65625-.84375.6875-1,.84375-1,.65625-.8125.84375-1,.65625 8.84375,10.84375-.6875.5-.65625.5-.5.5-.6875.65625-.65625.53125-.65625.46875-.6875.6875-.5.5-.65625.65625-.65625.5-.6875.6875-.65625.5-.5.65625-.65625.65625-.6875.6875-.65625.5-.6875.65625-.46875.65625-.6875.6875-.65625.8125-.6875.6875-.65625.65625-.65625.84375-.5.65625-.6875.84375-.65625.65625-.65625.84375-.6875.8125-.65625.84375-.5.84375-.6875.84375-.65625.84375-11.1875-8.1875-.5.84375-.5.65625-.65625.84375-.5.8125-.5.65625-.53125.84375-.46875.84375-.6875.84375-.5.8125-.5.84375-.5.84375-.5.8125-.5.84375-.5.8125-.5,1.03125-.5.8125-.5,1.03125-.5.8125-.5,1-.5.84375-.5,1-.5,1-.5,1-.34375,1-.5,1-.5,1-.5,1-.5,1-.34375,1.1875-.46875,1-.5,1.15625-.53125,1.15625 12.84375,5-.3125.84375-.34375.84375-.34375.84375-.3125.8125-.34375.84375-.15625.84375-.34375.8125-.3125.84375-.34375.84375-.1875,1-.3125.8125-.1875.84375-.3125,1-.15625.84375-.34375.84375-.1875.96875-.15625.84375-.15625,1.03125-.34375.8125-.15625,1-.15625,1-.1875,1-.15625,1-.34375,1-.15625,1-.1875,1-.15625,1-.15625,1-.1875,1-.15625,1.1875-.15625,1v1.15625l-13.1875-1.5-.1875,1v1l-.15625,1v1 .84375l-.15625,1v1 .8125 1.03125 .8125 1 .84375 1 .84375 .96875 .0312 .8125 .1875 .8125 .0312 .96875 .84375 1 .84375 1 .8125 1.03125 .8125 1l.15625,1v.84375 1l.15625,1v1l.1875,1 13.1875-1.5v1.15625l.15625,1 .15625,1.1875 .1875,1 .15625,1 .15625,1 .1875,1 .15625,1 .34375,1 .15625,1 .1875,1 .15625,1 .15625,1 .34375.8125 .15625,1.03125 .15625.84375 .1875.96875 .34375.84375 .15625.84375 .3125,1 .1875.84375 .3125.8125 .1875,1 .34375.84375 .3125.84375 .34375.8125 .15625.84375 .34375.84375 .3125.8125 .34375.84375 .34375.84375 .3125.84375-12.84375,5 .53125,1.15625 .5,1.15625 .46875,1 .34375,1.1875 .5,1 .5,1 .5,1 .5,1 .34375,1 .5,1 .5,1 .5,1 .5.84375 .5,1 .5.8125 .5,1.03125 .5.8125 .5,1.03125 .5.8125 .5.84375 .5.8125 .5.84375 .5.84374 .5.8125 .6875.84375 .46875.84375 .53125.84375 .5.65625 .5.8125 .65625.84375 .5.65625 .5.84375 11.1875-8.18749 .65625.84375 .6875.84374 .5.84375 .65625.84375 .6875.8125 .65625.84375 .65625.65625 .6875.84375 .5.65625 .65625.84375 .65625.65625 .6875.6875 .65625.8125 .6875.6875 .46875.65625 .6875.65625 .65625.5 .6875.6875 .65625.65625 .5.65625 .65625.5 .6875.6875 .65625.5 .65625.65625 .5.5 .6875.6875 .65625.46875 .65625.53125 .6875.65625 .5.5 .65625.5 .6875.5-8.84375,10.84375 1,.65625 .8125.84375 1,.65625 1,.84375 .84375.6875 1,.65625 .84375.65625 1,.65625 .84375.6875 1,.65625 1,.5 .84375.6875 1,.65625 1,.5 .8125.65625 1,.5 1,.6875 .84375.5 1,.5 1,.5 1,.65625 .84375.5 1,.5 1,.5 1,.5 1,.5 1,.5 1,.5 1,.53125 1,.3125 1,.5 1,.5 5.6875-13.1875 .84375.5 1,.34375 1,.5 1,.3125 .8125.34375 1.03125.34375 .8125.34375 1.03125.3125 .8125.34375 .8125.34375 1.03125.15625 .8125.34375 .84375.15625 1,.34375 .84375.15625 .84375.34375 1.00001.15625 .8125.34375 .84375.15625 1,.1875 .84375.15625 1,.15625 .84375.34375 1,.15625 .84375.15625 .96875.1875 1,.15625 .84375.15625 1,.1875 1,.15625 1,.15625 1.1875.15625-2,14.03125 1.15625.15625 1,.1875 1,.15625h1.00001l1.1875.15625 1,.1875h1l1,.15625h1l1,.1875h1 1 1l1,.15625h1 .84375 1 1 1 1 1 1l.84375-.15625h.96875 1.03125l1-.1875h1l1-.15625h1l1-.1875 1-.15625h1l-1.5-14.53125 1-.15625 1.1875-.15625 1-.15625h1l1.15625-.1875 1-.3125 1.15625-.1875 1-.15625 1.1875-.15625 1-.15625 1-.34375 1.15625-.15625 1-.34375 1-.1875 1-.3125 1.1875-.34375 1-.15625 1-.34375 1-.34375 1-.3125 1-.34375 1-.34375 1.03125-.3125 .96875-.34375 1-.34375 1-.5 1-.34375 .84375-.3125 1-.5 1-.34375 .84375-.5 1-.3125 5.6875,13.34375 1-.34375 1-.5 .8125-.5 1-.34375 .84375-.5 1-.5 .84375-.3125 .8125-.5 1-.53125 .84375-.5 .84375-.3125 .8125-.5 .875-.5 .8125-.5 1-.5 .84375-.5 .65625-.5 .84375-.5 .8125-.5 .84375-.53125 .84375-.46875 .84375-.5 .65625-.53125 .84375-.5 .65625-.65625 .84375-.5 .65625-.5 .84375-.5 .6875-.65625 .81249-.5 .6875-.5 .65625-.6875-8.84374-11.65625 .84375-.5 .65625-.6875 .8125-.65625 .84375-.5 .84375-.65625 .6875-.6875 .8125-.8125 .84375-.6875 .81249-.65625 .65625-.65625 .84375-.84375 .84375-.6875 .8125-.8125 .6875-.84375 .84375-.65625 .84375-.84375 .65625-.84375 .84375-.84375 .65625-.65625 .65625-.84375 .84375-.8125 .6875-.84375 .65625-.84375 .65625-.65625 .65625-.8125 .6875-.84375 .5-.84375 .65625-.65625 .53125-.84375 .65625-.68749 .5-.8125 .5-.65625 11.68751,8.65624 .65625-.8125 .5-.84375 .6875-.6875 .46875-.8125 .53125-.84375 .65625-.8125 .5-.84375 .5-.84375 .65625-.99999 .5-.84375 .5-.8125 .5-1 .5-.84375 .5-.84375 .5-1 .5-.84375 .53125-1 .46875-.8125 .53125-1 .5-.84375 .46875-1 .34375-.84375 .5-1 .34375-.8125 .5-1 .34375-.84375 .5-.84375 .3125-1 .34375-.84375 .3125-.8125 .375-.84375 .3125-.84375-13.5-5.46875 .46875-1.03125 .34375-1 .34375-1 .34375-1 .3125-1 .34375-1.15625 .34375-1 .3125-1 .34375-1 .34375-1 .3125-1 .1875-1.1875 .3125-1 .34375-1 .15625-1 .34375-1 .15625-1 .15625-1 .34375-1 .1875-1 .15625-1 .15625-1 .1875-1 .125-1 .1875-1v-1.03125l.1875-.8125 .15625-1v-1l.1875-1v-.84375-1l14.34375,1.34375 .15625-1v-.84375l.1875-1v-1l.15625-1v-1-1-1-1-1-1-1-1l-.0312-.25 .0312-.25v-1-1-1-1-1-1-1-1l-.15625-1v-1l-.1875-1v-.84375l-.15625-1-14.34375,1.34375v-1-.84375l-.1875-1v-1l-.15625-1-.1875-.8125v-1.03125l-.1875-1-.125-1-.1875-1-.15625-1-.15625-1-.1875-1-.34375-1-.15625-1-.15625-1-.34375-1-.15625-1-.34375-1-.3125-1-.1875-1.1875-.3125-1-.34375-1-.34375-1-.3125-1-.34375-1-.34375-1.15625-.3125-1-.34375-1-.34375-1-.34375-1-.46875-1.03125 13.5-5.46875-.3125-.84375-.375-.84375-.3125-.8125-.34375-.84375-.3125-1-.5-.84375-.34375-.84375-.5-1-.34375-.8125-.5-1-.34375-.84375-.46875-1-.5-.84375-.53125-1-.46875-.8125-.53125-1-.5-.84375-.5-1-.5-.84375-.5-.84375-.5-1-.5-.8125-.5-.84375-.65625-1-.5-.84375-.5-.84375-.65625-.8125-.53125-.84375-.46875-.8125-.6875-.6875-.5-.84375-.65625-.8125-11.68751,8.65625-.5-.65625-.5-.8125-.65625-.6875-.53125-.84375-.65625-.65625-.5-.84375-.6875-.84375-.65625-.8125-.65625-.65625-.65625-.84375-.6875-.84375-.84375-.8125-.65625-.84375-.65625-.65625-.84375-.84375-.65625-.84375-.84375-.84375-.84375-.65625-.6875-.84375-.8125-.8125-.84375-.6875-.84375-.84375-.65625-.65625-.81249-.65625-.84375-.6875-.8125-.8125-.6875-.6875-.84375-.65625-.84375-.5-.8125-.65625-.65625-.6875-.84375-.5 8.84374-11.65625-.65625-.6875-.6875-.5-.81249-.5-.6875-.65625-.84375-.5-.65625-.5-.84375-.5-.65625-.65625-.84375-.5-.65625-.53125-.84375-.5-.84375-.46875-.84375-.53125-.8125-.5-.84375-.5-.65625-.5-.84375-.5-1-.5-.8125-.5-.875-.5-.8125-.5-.84375-.3125-.84375-.5-1-.53125-.8125-.5-.84375-.3125-1-.5-.84375-.5-1-.34375-.8125-.5-1-.5-1-.34375-5.6875,13.34375-1-.3125-.84375-.5-1-.34375-1-.5-.84375-.3125-1-.34375-1-.5-1-.34375-.96875-.34375-1.03125-.3125-1-.34375-1-.34375-1-.3125-1-.34375-1-.34375-1-.15625-1.1875-.34375-1-.3125-1-.1875-1-.34375-1.15625-.15625-1-.34375-1-.15625-1.1875-.15625-1-.15625-1.15625-.1875-1-.3125-1.15625-.1875h-1l-1-.15625-1.1875-.15625-1-.15625 1.5-14.53125h-1l-1-.15625-1-.1875h-1l-1-.15625h-1l-1-.1875h-1.03125-.96875l-.84375-.15625h-1-1-1-1-1-1-.84375-1zm2.6875,34.375 5.34375.15625 5.125.34375 5.21875.84375 5.15625,1 5.1875,1.34375 5,1.65625 5,1.8125 5,2.1875 4.6875,2.5 4.84375,2.84375 4.5,3 4.34375,3.5 4.34375,3.5 4.15625,4 3.84375,4.34375 3.84375,4.5h-.34375c3.46504,4.47663 6.55185,9.25244 9.18749,14.3125v-.125l.53125,1.1875c6.28876,12.45232 9.90917,26.47041 10.15625,41.3125h-.0312c.0228.75579.0524,1.51913.0625,2.28125-.0101.76212-.0397,1.52546-.0625,2.28125h.0312c-.24708,14.8421-3.86749,28.86018-10.15625,41.3125l-.53125,1.1875v-.125c-2.63564,5.06006-5.72245,9.83586-9.18749,14.3125h.34375l-3.84375,4.5-3.84375,4.34375-4.15625,3.99999-4.34375,3.5-4.34375,3.5-4.5,3-4.84375,2.84375-4.6875,2.5-5,2.1875-5,1.8125-5,1.65625-5.1875,1.34375-5.15625,1-5.21875.84375-5.125.34375-5.34375.15625-5.1875-.15625-5.34375-.34375-5.18751-.84375-5.15625-1-5.1875-1.34375-5.00001-1.65625-5-1.8125-5.03125-2.1875-4.65625-2.65625-4.84375-2.6875-4.5-3.15625-4.5-3.34375-4.1875-3.84375-4.15625-3.99999-4.03125-4.3125-3.65625-4.53125h.1875c-3.48913-4.55056-6.55255-9.41683-9.1875-14.5625l-.0312.21875-.40625-1.09375c-6.16594-12.35342-9.75299-26.22156-10-40.90625h.0312c-.0228-.75579-.0524-1.51913-.0625-2.28125 .0101-.76212.0397-1.52546.0625-2.28125h-.0312c.24961-14.67813 3.83654-28.5578 10-40.90625l.40625-1.09375 .0312.21875c2.63495-5.14567 5.69837-10.01194 9.1875-14.5625h-.1875l3.65625-4.53125 4.03125-4.3125 4.15625-4 4.1875-3.84375 4.5-3.34375 4.5-3.15625 4.84375-2.6875 4.65625-2.65625 5.03125-2.1875 5-1.8125 5.00001-1.65625 5.1875-1.34375 5.15625-1 5.18751-.84375 5.34375-.34375 5.1875-.15625z"/>
</svg>
